<svg width="32" height="32" viewBox="0 0 32 32" fill="none" xmlns="http://www.w3.org/2000/svg">
<path d="M4.20214 11.2225L3.05859 13.2087L15.9385 27.8942C15.9987 27.9544 16.0589 27.9544 16.0589 27.8942L28.9388 13.2087L25.6887 7.61133H9.73929" stroke="white" stroke-miterlimit="10"/>
<path d="M3 13.2085H29.0006" stroke="white" stroke-miterlimit="10"/>
<path d="M16.0014 27.9546L10.043 14.4126" stroke="white" stroke-miterlimit="10"/>
<path d="M16 27.6536L21.7779 14.4126" stroke="white" stroke-miterlimit="10"/>
<path d="M16 14.4126V27.6536" stroke="white" stroke-miterlimit="10"/>
<path d="M13.1108 7.37061L9.68014 12.0651L8.77734 10.8614" stroke="white" stroke-miterlimit="10"/>
<path d="M19.3126 7.37061L15.882 12.0651L12.8125 8.09284" stroke="white" stroke-miterlimit="10"/>
<path d="M25.4478 7.37061L22.0773 12.0651L19.0078 8.09284" stroke="white" stroke-miterlimit="10"/>
<path d="M6.1875 4V5.68522" stroke="white" stroke-miterlimit="10"/>
<path d="M9.31557 5.80566L7.87109 6.64827" stroke="white" stroke-miterlimit="10"/>
<path d="M9.31557 9.41683L7.87109 8.57422" stroke="white" stroke-miterlimit="10"/>
<path d="M6.1875 11.2223V9.53711" stroke="white" stroke-miterlimit="10"/>
<path d="M3.05859 9.41683L4.50307 8.57422" stroke="white" stroke-miterlimit="10"/>
<path d="M3.05859 5.80566L4.50307 6.64827" stroke="white" stroke-miterlimit="10"/>
</svg>
