<svg width="32" height="32" viewBox="0 0 32 32" fill="none" xmlns="http://www.w3.org/2000/svg">
<path d="M4.20409 11.2223L3.06055 13.2084L15.9405 27.8939C16.0006 27.9541 16.0608 27.9541 16.0608 27.8939L28.9407 13.2084L25.6907 7.61108H9.74125" stroke="white" stroke-miterlimit="10"/>
<path d="M3 13.2083H29.0006" stroke="white" stroke-miterlimit="10"/>
<path d="M16.0005 27.9543L10.042 14.4124" stroke="white" stroke-miterlimit="10"/>
<path d="M16 27.6534L21.7779 14.4124" stroke="white" stroke-miterlimit="10"/>
<path d="M16 14.4124V27.6534" stroke="white" stroke-miterlimit="10"/>
<path d="M13.1108 7.37036L9.68014 12.0649L8.77734 10.8612" stroke="white" stroke-miterlimit="10"/>
<path d="M19.3107 7.37036L15.8801 12.0649L12.8105 8.0926" stroke="white" stroke-miterlimit="10"/>
<path d="M25.4487 7.37036L22.0783 12.0649L19.0088 8.0926" stroke="white" stroke-miterlimit="10"/>
<path d="M6.1875 3.99976V5.68498" stroke="white" stroke-miterlimit="10"/>
<path d="M9.31752 5.80542L7.87305 6.64803" stroke="white" stroke-miterlimit="10"/>
<path d="M9.31752 9.41658L7.87305 8.57397" stroke="white" stroke-miterlimit="10"/>
<path d="M6.1875 11.2221V9.53687" stroke="white" stroke-miterlimit="10"/>
<path d="M3.05859 9.41658L4.50307 8.57397" stroke="white" stroke-miterlimit="10"/>
<path d="M3.05859 5.80542L4.50307 6.64803" stroke="white" stroke-miterlimit="10"/>
</svg>
