<svg width="32" height="32" viewBox="0 0 32 32" fill="none" xmlns="http://www.w3.org/2000/svg">
<path d="M27.7677 9.52258L29.9613 7.32903L24.671 2.03871L22.4774 4.23226C21.6 3.74194 20.6968 3.38065 19.7419 3.09677V0H12.2581V3.09677C11.3032 3.38065 10.4 3.74194 9.52258 4.23226L7.32903 2.03871L2.03871 7.32903L4.23226 9.52258C3.74194 10.4 3.38065 11.3032 3.09677 12.2581H0V19.7419H3.09677C3.38065 20.6968 3.74194 21.6 4.23226 22.4774L2.03871 24.671L7.32903 29.9613L9.52258 27.7677C10.4 28.2581 11.3032 28.6194 12.2581 28.9032V32H19.7419V28.9032C20.6968 28.6194 21.6 28.2581 22.4774 27.7677L24.671 29.9613L29.9613 24.671L27.7677 22.4774C28.2581 21.6 28.6194 20.6968 28.9032 19.7419H32V12.2581H28.9032C28.6194 11.3032 28.2323 10.4 27.7677 9.52258ZM30.9677 18.7097H28.1032L28 19.0968C27.7161 20.2065 27.2774 21.2903 26.6839 22.2968L26.4774 22.6323L28.5161 24.671L24.6968 28.4903L22.6581 26.4516L22.3226 26.6581C21.3161 27.2516 20.2323 27.6903 19.1226 27.9742L18.7355 28.0774V30.9677H13.3161V28.1032L12.929 28C11.8194 27.7161 10.7355 27.2774 9.72903 26.6839L9.39355 26.4774L7.35484 28.5161L3.50968 24.671L5.54839 22.6323L5.34194 22.2968C4.74839 21.2903 4.30968 20.2065 4.02581 19.0968L3.92258 18.7097H1.03226V13.2903H3.89677L4 12.9032C4.28387 11.7935 4.72258 10.7097 5.31613 9.70323L5.52258 9.36774L3.48387 7.32903L7.30323 3.50968L9.34194 5.54839L9.67742 5.34194C10.6839 4.74839 11.7677 4.30968 12.8774 4.02581L13.2645 3.92258V1.03226H18.6839V3.89677L19.071 4C20.1806 4.28387 21.2645 4.72258 22.271 5.31613L22.6065 5.52258L24.6452 3.48387L28.4645 7.30323L26.4258 9.34194L26.6323 9.67742C27.2258 10.6839 27.6645 11.7677 27.9484 12.8774L28.0516 13.2645H30.9677V18.7097Z" fill="white"/>
<path d="M16.0003 7.7417C11.4583 7.7417 7.74219 11.4578 7.74219 15.9998C7.74219 20.5417 11.4583 24.2578 16.0003 24.2578C20.5422 24.2578 24.2583 20.5417 24.2583 15.9998C24.2583 11.4578 20.5422 7.7417 16.0003 7.7417ZM16.0003 23.2256C12.0261 23.2256 8.77445 19.974 8.77445 15.9998C8.77445 12.0256 12.0261 8.77396 16.0003 8.77396C19.9744 8.77396 23.2261 12.0256 23.2261 15.9998C23.2261 19.974 19.9744 23.2256 16.0003 23.2256Z" fill="white"/>
<path d="M15.9733 15.3549C15.5346 15.1484 15.1733 14.9678 15.1733 14.4258C15.1733 13.9871 15.5604 13.6 15.9991 13.6C16.2572 13.6 16.5668 13.7291 16.7217 14.0387L17.6765 13.5742C17.4701 13.0839 17.0056 12.7484 16.5152 12.6194V12.1807H15.483V12.6194C14.683 12.8516 14.1152 13.5484 14.1152 14.4774C14.1152 15.5871 14.8378 16 15.7927 16.4129C16.283 16.6194 16.8507 16.8774 16.8507 17.5484C16.8507 18.0129 16.4378 18.4516 15.9733 18.4516C15.5088 18.4516 15.2249 18.2194 15.0443 17.8839C14.7346 17.9871 14.4249 18.0903 14.141 18.1678C14.2959 18.7613 14.812 19.2774 15.5088 19.4323V19.9484H16.541V19.4323C17.3152 19.2 17.9088 18.4516 17.9088 17.5742C17.883 16.3871 17.3152 15.9484 15.9733 15.3549Z" fill="white"/>
</svg>
