<svg width="32" height="32" viewBox="0 0 32 32" fill="none" xmlns="http://www.w3.org/2000/svg">
<path d="M7.3541 15.7121C7.15541 15.9108 6.8324 15.9108 6.6337 15.7121L5.55258 14.631L4.47146 15.7121C4.27276 15.9108 3.94975 15.9108 3.75105 15.7121C3.55236 15.5134 3.55236 15.1904 3.75105 14.9917L5.19187 13.5509C5.39057 13.3522 5.71358 13.3522 5.91227 13.5509L7.35309 14.9917C7.5528 15.1914 7.5528 15.5134 7.3541 15.7121ZM16 13.5509C15.8013 13.3522 15.4783 13.3522 15.2796 13.5509L13.8388 14.9917C13.6401 15.1904 13.6401 15.5134 13.8388 15.7121C14.0375 15.9108 14.3605 15.9108 14.5592 15.7121L16 14.2713C16.1987 14.0726 16.1987 13.7506 16 13.5509ZM19.603 9.94887C19.4044 9.75018 19.0813 9.75018 18.8826 9.94887L17.4418 11.3897C17.2431 11.5884 17.2431 11.9114 17.4418 12.1101C17.6405 12.3088 17.9635 12.3088 18.1622 12.1101L19.603 10.6693C19.8017 10.4696 19.8017 10.1476 19.603 9.94887ZM23.2051 6.34582C23.0064 6.14713 22.6834 6.14713 22.4847 6.34582L21.0439 7.78664C20.8452 7.98533 20.8452 8.30835 21.0439 8.50704C21.2426 8.70574 21.5656 8.70574 21.7643 8.50704L23.2051 7.06623C23.4038 6.86753 23.4038 6.54452 23.2051 6.34582ZM12.3969 17.154C12.1983 16.9553 11.8752 16.9553 11.6765 17.154L10.5954 18.2351L9.51431 17.154C9.31561 16.9553 8.9926 16.9553 8.7939 17.154C8.5952 17.3527 8.5952 17.6757 8.7939 17.8744L10.2347 19.3152C10.4334 19.5139 10.7564 19.5139 10.9551 19.3152L12.3959 17.8744C12.5967 17.6746 12.5967 17.3527 12.3969 17.154ZM10.9561 29.4019L31.851 8.50704C32.0497 8.30835 32.0497 7.98533 31.851 7.78664L26.8071 2.74277C26.6084 2.54408 26.2854 2.54408 26.0867 2.74277L24.6459 4.18359C24.4472 4.38228 24.4472 4.70529 24.6459 4.90399C24.8446 5.10269 25.1676 5.10269 25.3663 4.90399L26.4474 3.82287L30.7709 8.14633L10.5964 28.3218L1.22912 18.9545L2.31024 17.8733C2.50894 17.6746 2.50894 17.3516 2.31024 17.1529C2.11154 16.9542 1.78853 16.9542 1.58984 17.1529L0.149023 18.5938C-0.0496744 18.7924 -0.0496744 19.1155 0.149023 19.3142L10.2357 29.4009C10.4354 29.6016 10.7574 29.6016 10.9561 29.4019Z" fill="white"/>
</svg>
