<svg width="32" height="32" viewBox="0 0 32 32" fill="none" xmlns="http://www.w3.org/2000/svg">
<path d="M6.22727 22.0001H1.75V10.3638H6.18182C7.37879 10.3638 8.41288 10.5967 9.28409 11.0626C10.1591 11.5248 10.8333 12.1914 11.3068 13.0626C11.7841 13.9301 12.0227 14.9698 12.0227 16.182C12.0227 17.3941 11.786 18.4357 11.3125 19.307C10.839 20.1744 10.1686 20.841 9.30114 21.307C8.43371 21.7691 7.40909 22.0001 6.22727 22.0001ZM4.90909 19.3183H6.11364C6.68939 19.3183 7.17992 19.2255 7.58523 19.0399C7.99432 18.8543 8.30492 18.5342 8.51705 18.0797C8.73295 17.6251 8.84091 16.9926 8.84091 16.182C8.84091 15.3713 8.73106 14.7388 8.51136 14.2842C8.29545 13.8297 7.97727 13.5096 7.55682 13.324C7.14015 13.1384 6.62879 13.0456 6.02273 13.0456H4.90909V19.3183Z" fill="white"/>
<path d="M13.3244 22.0001V10.3638H16.4835V19.4547H21.188V22.0001H13.3244Z" fill="white"/>
<path d="M20.5962 12.9092V10.3638H30.7098V12.9092H27.2098V22.0001H24.0962V12.9092H20.5962Z" fill="white"/>
</svg>
