<svg width="100" height="100" viewBox="0 0 100 100" fill="none" xmlns="http://www.w3.org/2000/svg">
<path d="M31.6514 8.25688V11.9266H24.312C22.7175 11.9266 21.1175 12.6954 20.2551 13.7615H9.63306V74.3119L29.8165 94.4954H72.0184V13.7615H61.3964C60.534 12.6954 58.934 11.9266 57.3395 11.9266H50V8.25688H47.9211C46.3523 6.43486 45.4991 6.41835 45.4092 4.62202C45.4092 4.61101 45.4129 4.59816 45.4129 4.58716C45.4129 2.05872 43.356 0 40.8257 0C38.5578 0 36.6826 1.65872 36.3156 3.82202C36.2753 4.07339 36.2386 4.32477 36.2386 4.58716C36.2386 4.59816 36.2422 4.61101 36.2422 4.62202C36.1523 6.41835 35.2991 6.43486 33.7303 8.25688H31.6514ZM27.9817 90.066L14.0624 76.1468H27.9817V90.066ZM62.1101 15.5963H70.1835V92.6605H29.8165V74.3119H11.4679V15.5963H19.4716C19.0881 17.1817 18.8074 19.2661 18.8074 19.2661H62.8441L62.1101 15.5963ZM38.0771 4.55963C38.0771 4.45321 38.0954 4.35046 38.1083 4.24771C38.1211 4.16147 38.1248 4.07523 38.145 3.99083C38.4202 2.75963 39.5138 1.83486 40.8257 1.83486C42.3175 1.83486 43.5266 3.02569 43.5707 4.50642L43.567 4.5211L43.5725 4.63853C43.5431 6.13211 42.3248 7.33945 40.8257 7.33945C39.3211 7.33945 38.0954 6.12294 38.0771 4.62202V4.55963ZM33.4863 10.0917H34.5707L35.1211 9.45504C35.5468 8.95963 35.9193 8.61284 36.2441 8.30826C36.5652 8.00917 36.8881 7.70642 37.1743 7.33394C38.0129 8.44404 39.3303 9.17431 40.8257 9.17431C42.3193 9.17431 43.6386 8.44587 44.4753 7.33578C44.7597 7.70459 45.0863 8.00734 45.4074 8.30826C45.734 8.61468 46.1046 8.95963 46.5303 9.45504L47.0808 10.0917H48.1652V13.7615H57.3395C58.6918 13.7615 59.8863 14.5908 60.156 15.1853L60.6055 17.4312H20.9597C21.1065 16.6294 21.2863 15.8 21.4642 15.2587C21.6642 14.6642 22.9009 13.7615 24.312 13.7615H33.4863V10.0917Z" fill="white"/>
<path d="M73.8529 8.2569H51.8346V10.0918H73.8529C74.8658 10.0918 75.6878 10.9156 75.6878 11.9266V96.3303C75.6878 97.3413 74.8658 98.1652 73.8529 98.1652H7.7979C6.78505 98.1652 5.96304 97.3413 5.96304 96.3303V11.9266C5.96304 10.9156 6.78505 10.0918 7.7979 10.0918H29.8162V8.2569H7.7979C5.77955 8.2569 4.12817 9.90827 4.12817 11.9266V96.3303C4.12817 98.3486 5.77955 100 7.7979 100H73.8529C75.8713 100 77.5227 98.3486 77.5227 96.3303V11.9266C77.5227 9.90827 75.8713 8.2569 73.8529 8.2569Z" fill="white"/>
<path d="M92.2018 52.6385V13.7614H94.0367V44.9541L95.8716 46.789V13.7614C95.8716 11.7358 94.3119 9.57245 92.3908 8.93025L90.8257 8.83667V52.6385H92.2018Z" fill="white"/>
<path d="M92.2016 43.1193H81.1924V44.9541H92.2016V43.1193Z" fill="white"/>
<path d="M83.0272 8.71192L90.3667 10.3523V13.7615V48.6238V81.6514H83.0272V8.71192ZM81.1924 6.42201V83.3578V83.4862H92.2016V48.6238V13.7615V8.88073L81.1924 6.42201Z" fill="white"/>
<path d="M90.2658 83.4862L86.697 94.1982L83.1282 83.4862H90.2658ZM92.2016 81.6514H81.1924V83.4862L86.697 100L92.2016 83.4862V81.6514Z" fill="white"/>
<path d="M54.5872 39.4495C50.0349 39.4495 46.3303 35.7449 46.3303 31.1927C46.3303 26.6404 50.0349 22.9358 54.5872 22.9358C59.1395 22.9358 62.8441 26.6404 62.8441 31.1927C62.8441 35.7449 59.1395 39.4495 54.5872 39.4495ZM54.5872 24.7706C51.0459 24.7706 48.1652 27.6514 48.1652 31.1927C48.1652 34.7339 51.0459 37.6147 54.5872 37.6147C58.1285 37.6147 61.0092 34.7339 61.0092 31.1927C61.0092 27.6514 58.1285 24.7706 54.5872 24.7706Z" fill="white"/>
<path d="M55.5045 26.6055H53.6697V35.7798H55.5045V26.6055Z" fill="white"/>
<path d="M59.1743 30.2752H50V32.1101H59.1743V30.2752Z" fill="white"/>
<path d="M64.6787 48.6239H33.4861V50.4587H64.6787V48.6239Z" fill="white"/>
<path d="M64.6787 43.1193H33.4861V44.9541H64.6787V43.1193Z" fill="white"/>
<path d="M27.9815 62.3431V70.6422H16.9723V59.633H23.7778L24.8274 57.7982H15.1375V72.4771H29.8163V59.1376L27.9815 62.3431Z" fill="white"/>
<path d="M22.5375 68.7174L18.0439 61.9762L19.5706 60.9596L22.4164 65.2275L29.0201 53.6734L30.6128 54.5835L22.5375 68.7174Z" fill="white"/>
<path d="M27.9815 40.3248V48.6239H16.9723V37.6147H23.7778L24.8274 35.7798H15.1375V50.4587H29.8163V37.1193L27.9815 40.3248Z" fill="white"/>
<path d="M22.5375 46.6991L18.0439 39.9578L19.5706 38.9413L22.4164 43.2092L29.0201 31.6551L30.6128 32.5651L22.5375 46.6991Z" fill="white"/>
<path d="M64.6787 70.6422H33.4861V72.4771H64.6787V70.6422Z" fill="white"/>
<path d="M64.6787 65.1376H33.4861V66.9725H64.6787V65.1376Z" fill="white"/>
</svg>
