<svg width="100" height="100" viewBox="0 0 100 100" fill="none" xmlns="http://www.w3.org/2000/svg">
<path d="M29.9765 43.4146L29.9765 31.3078C29.9765 31.1017 29.8913 30.9045 29.7413 30.7671L19.5913 21.5578C19.4618 21.4204 19.2795 21.3338 19.0765 21.3338C19.0501 21.3338 19.0236 21.3397 18.9971 21.3427L4.88243 21.3427C4.48831 21.3427 4.16772 21.6683 4.16772 22.0686L4.16772 43.4146C4.16772 43.8149 4.48831 44.1405 4.88243 44.1405H29.2589C29.656 44.1405 29.9765 43.8179 29.9765 43.4146ZM5.59714 22.7945H18.3589V42.6888H5.59714L5.59714 22.7945ZM28.5471 42.6888H19.7913V23.6846L27.2677 30.4594L28.5471 31.6274L28.5471 42.6888Z" fill="white"/>
<path d="M75.1615 11.8674C75.9027 11.8674 76.5086 11.255 76.5086 10.4993C76.5086 9.74653 75.9056 9.13118 75.1615 9.13118C74.4203 9.13118 73.8145 9.74354 73.8145 10.4993C73.8145 11.252 74.4174 11.8674 75.1615 11.8674ZM75.1615 10.4156C75.2086 10.4156 75.2439 10.4545 75.2439 10.4993C75.2439 10.5471 75.2056 10.5829 75.1615 10.5829C75.1145 10.5829 75.0792 10.5441 75.0792 10.4993C75.0762 10.4515 75.1145 10.4156 75.1615 10.4156Z" fill="white"/>
<path d="M63.0856 65.7433H72.4826C72.8767 65.7433 73.1973 65.4177 73.1973 65.0174V54.7566C73.1973 54.3563 72.8767 54.0307 72.4826 54.0307H63.0856C62.6914 54.0307 62.3708 54.3563 62.3708 54.7566V65.0204C62.3708 65.4207 62.6914 65.7433 63.0856 65.7433ZM63.8003 55.4825H71.7679V64.2945H63.8003V55.4825Z" fill="white"/>
<path d="M78.0411 65.7433H87.4382C87.8323 65.7433 88.1529 65.4177 88.1529 65.0174V54.7566C88.1529 54.3563 87.8323 54.0307 87.4382 54.0307H78.0411C77.647 54.0307 77.3264 54.3563 77.3264 54.7566V65.0204C77.3264 65.4207 77.647 65.7433 78.0411 65.7433ZM78.7558 55.4825H86.7235V64.2945H78.7558V55.4825Z" fill="white"/>
<path d="M49.3559 79.3647H39.9588C39.5647 79.3647 39.2441 79.6903 39.2441 80.0906V90.3543C39.2441 90.7546 39.5647 91.0802 39.9588 91.0802H49.3559C49.75 91.0802 50.0706 90.7546 50.0706 90.3543V80.0906C50.0706 79.6903 49.75 79.3647 49.3559 79.3647ZM48.6412 89.6285H40.6736V80.8164H48.6412V89.6285Z" fill="white"/>
<path d="M63.2678 79.3647H53.8707C53.4766 79.3647 53.156 79.6903 53.156 80.0906V90.3543C53.156 90.7546 53.4766 91.0802 53.8707 91.0802H63.2678C63.6619 91.0802 63.9825 90.7546 63.9825 90.3543V80.0906C63.9825 79.6903 63.6648 79.3647 63.2678 79.3647ZM62.5531 89.6285H54.5854V80.8164H62.5531V89.6285Z" fill="white"/>
<path d="M71.4588 91.0802H80.8559C81.25 91.0802 81.5706 90.7546 81.5706 90.3543V80.0906C81.5706 79.6903 81.25 79.3647 80.8559 79.3647H71.4588C71.0647 79.3647 70.7441 79.6903 70.7441 80.0906V90.3543C70.7441 90.7546 71.0647 91.0802 71.4588 91.0802ZM72.1736 80.8164H80.1412V89.6285H72.1736V80.8164Z" fill="white"/>
<path d="M86.4147 91.0802H95.8117C96.2058 91.0802 96.5264 90.7546 96.5264 90.3543V80.0906C96.5264 79.6903 96.2058 79.3647 95.8117 79.3647H86.4147C86.0205 79.3647 85.7 79.6903 85.7 80.0906V90.3543C85.7 90.7546 86.0205 91.0802 86.4147 91.0802ZM87.1294 80.8164H95.097V89.6285H87.1294V80.8164Z" fill="white"/>
<path d="M0.714706 92.514C0.320588 92.514 0 92.8396 0 93.2399L0 98.0492C0 98.4494 0.320588 98.775 0.714706 98.775L99.2853 98.775C99.6794 98.775 100 98.4494 100 98.0492V93.2399V77.205C100 76.8047 99.6794 76.4791 99.2853 76.4791H67.7853L36.2853 76.4791C35.8912 76.4791 35.5706 76.8047 35.5706 77.205L35.5706 92.514H22.8529L22.8529 47.7847L33.4294 47.7847C33.8235 47.7847 34.1441 47.4591 34.1441 47.0588L34.1441 30.8178C34.1441 30.6117 34.0588 30.4145 33.9088 30.2771L32.5412 29.0255L72.3824 15.1981C73.0059 15.5924 73.7088 15.8433 74.45 15.9419V51.1392H59.4147C59.0206 51.1392 58.7 51.4648 58.7 51.8651V67.9C58.7 68.3003 59.0206 68.6259 59.4147 68.6259L90.9147 68.6259C91.3088 68.6259 91.6294 68.3003 91.6294 67.9L91.6294 51.8651C91.6294 51.4648 91.3088 51.1392 90.9147 51.1392L75.8794 51.1392V15.9419C78.5265 15.5834 80.5794 13.2833 80.5794 10.4963C80.5794 7.46438 78.15 5 75.1647 5C72.9618 5 71.0147 6.32628 70.2059 8.3187L22.7382 20.1179L20.2412 17.8566C20.1088 17.7371 19.9412 17.6714 19.7647 17.6714H0.714706C0.320588 17.6744 0 18 0 18.4003L0 47.0588C0 47.4591 0.320588 47.7847 0.714706 47.7847H11.3176L11.3176 92.514H0.714706ZM90.1971 67.1801L60.1235 67.1801V52.597L90.1941 52.597L90.1971 67.1801ZM98.5706 97.3263L1.42941 97.3263L1.42941 93.9688H12.0324H22.1382H36.2853L67.7853 93.9688H98.5706V97.3263ZM98.5706 92.514H68.5V77.9308H98.5706V92.514ZM36.9971 77.9308L67.0676 77.9308V92.514L36.9971 92.514L36.9971 77.9308ZM75.1618 6.45174C77.3588 6.45174 79.1471 8.26792 79.1471 10.4963C79.1471 12.7277 77.3588 14.5439 75.1618 14.5439C74.3176 14.5439 73.5588 14.2989 72.8882 13.8001C71.8176 13.0533 71.1765 11.8166 71.1765 10.4993C71.1765 10.0602 71.2559 9.60616 71.4176 9.16107C71.9441 7.54205 73.4471 6.45174 75.1618 6.45174ZM69.7794 9.91981C69.7765 9.94669 69.7765 9.97059 69.7735 9.99747C69.7706 10.0273 69.7676 10.0602 69.7647 10.0901C69.7529 10.2275 69.7471 10.3619 69.7471 10.4963C69.7471 10.6457 69.7559 10.795 69.7676 10.9414C69.7706 10.9773 69.7735 11.0161 69.7765 11.0519C69.8059 11.3477 69.8588 11.6404 69.9353 11.9242C69.9441 11.954 69.9529 11.9839 69.9618 12.0168C70.0441 12.3065 70.15 12.5903 70.2794 12.8621C70.2882 12.8801 70.2971 12.898 70.3059 12.9159C70.4412 13.1967 70.6029 13.4655 70.7853 13.7194C70.7882 13.7254 70.7941 13.7314 70.7971 13.7374C70.8912 13.8658 70.9882 13.9913 71.0941 14.1137L31.3206 27.9173L29.2735 26.0563L24.0294 21.2948L69.7794 9.91981ZM1.42941 19.1261H19.4912L30.5676 29.1778L30.6794 29.2794L32.7147 31.1404L32.7147 46.3329L22.1382 46.3329H12.0324H1.42941L1.42941 19.1261ZM12.7471 47.7847H21.4235L21.4235 92.514H12.7471L12.7471 47.7847Z" fill="white"/>
</svg>
