<svg width="32" height="33" viewBox="0 0 32 33" fill="none" xmlns="http://www.w3.org/2000/svg">
<path d="M16.0009 6.74197C16.8585 6.74197 17.5564 6.04404 17.5564 5.18641C17.5564 4.32879 16.8585 3.63086 16.0009 3.63086C15.1432 3.63086 14.4453 4.32879 14.4453 5.18641C14.4453 6.04404 15.1432 6.74197 16.0009 6.74197ZM16.0009 4.6679C16.2866 4.6679 16.5194 4.90071 16.5194 5.18641C16.5194 5.47212 16.2866 5.70493 16.0009 5.70493C15.7152 5.70493 15.4823 5.47212 15.4823 5.18641C15.4823 4.90071 15.7152 4.6679 16.0009 4.6679Z" fill="white"/>
<path d="M15.9999 17.6308C15.4279 17.6308 14.9628 17.1657 14.9628 16.5938H13.9258C13.9258 17.7376 14.856 18.6678 15.9999 18.6678C17.1437 18.6678 18.0739 17.7376 18.0739 16.5938H17.0369C17.0369 17.1657 16.5718 17.6308 15.9999 17.6308Z" fill="white"/>
<path d="M28.8095 17.114C28.9085 16.7847 28.963 16.4363 28.963 16.0754C28.963 14.8631 28.3459 13.7338 27.3452 13.0638C27.3856 12.8637 27.4074 12.6573 27.4074 12.4458C27.4074 11.0572 26.4927 9.87857 25.2343 9.47983C24.8563 7.76353 23.4107 6.46516 21.6752 6.25671C21.6923 6.0742 21.7037 5.89064 21.7037 5.70501C21.7037 4.08516 21.011 2.53583 19.8033 1.45471C18.5973 0.37464 16.9748 -0.140767 15.3513 0.0376033C12.8033 0.319677 10.7007 2.36368 10.3518 4.89871C10.2885 5.3576 10.2849 5.81131 10.3269 6.2562C8.59037 6.46412 7.1437 7.76301 6.7657 9.47983C5.50726 9.87857 4.59259 11.0572 4.59259 12.4458C4.59259 12.6573 4.61437 12.8637 4.65481 13.0638C3.65407 13.7338 3.03704 14.8631 3.03704 16.0754C3.03704 16.4363 3.09148 16.7847 3.19052 17.114C2.42933 17.9649 2 19.0703 2 20.2235C2 22.0311 3.02459 23.6468 4.63615 24.4235C4.83993 25.8915 5.82615 27.139 7.19607 27.6923C7.30652 30.1682 9.34948 32.1495 11.8519 32.1495C13.6579 32.1495 15.2248 31.116 16 29.6108C16.7752 31.116 18.3421 32.1495 20.1481 32.1495C22.6505 32.1495 24.6935 30.1682 24.8039 27.6923C26.1733 27.139 27.1596 25.8915 27.3633 24.4235C28.9754 23.6468 30 22.0311 30 20.2235C30 19.0703 29.5707 17.9649 28.8095 17.114ZM11.3795 5.03975C11.6647 2.96879 13.383 1.29864 15.4654 1.06842C16.8161 0.918566 18.1104 1.33079 19.1116 2.22731C20.0999 3.1119 20.6667 4.37968 20.6667 5.70501C20.6667 6.74931 20.3291 7.73657 19.6903 8.55945C18.7528 9.76708 18.1197 11.0857 17.7998 12.4458H16.5185V7.77908H15.4815V12.4458H14.2204C13.9166 11.0499 13.3063 9.75723 12.416 8.69116C11.5636 7.67123 11.1954 6.37494 11.3795 5.03975ZM14.3884 13.4828H17.6183C17.581 13.8095 17.5556 14.1372 17.5556 14.4659V14.5198H14.4444V14.4643C14.4444 14.1335 14.4216 13.8069 14.3884 13.4828ZM26.6841 23.5903L26.3797 23.7126L26.36 24.0403C26.2952 25.1272 25.659 26.0838 24.7261 26.5873C24.3077 24.4417 22.4151 22.8161 20.1481 22.8161V23.8532C22.1496 23.8532 23.7778 25.4813 23.7778 27.4828C23.7778 29.4843 22.1496 31.1124 20.1481 31.1124C18.1467 31.1124 16.5185 29.4843 16.5185 27.4828V21.7791H15.4815V27.4828C15.4815 29.4843 13.8533 31.1124 11.8519 31.1124C9.85037 31.1124 8.22222 29.4843 8.22222 27.4828C8.22222 25.4813 9.85037 23.8532 11.8519 23.8532V22.8161C9.58489 22.8161 7.6923 24.4417 7.27333 26.5873C6.34052 26.0838 5.7043 25.1272 5.63948 24.0403L5.61978 23.7126L5.31541 23.5903C3.93148 23.0339 3.03704 21.7127 3.03704 20.2235C3.03704 19.4753 3.27193 18.7535 3.69244 18.15C4.34941 19.0885 5.43674 19.705 6.66667 19.705C7.56163 19.705 8.42081 19.3768 9.08711 18.7805L8.39541 18.0079C7.91993 18.4336 7.30548 18.668 6.66667 18.668C5.23711 18.668 4.07407 17.5049 4.07407 16.0754C4.07407 15.2857 4.44015 14.5437 5.0463 14.0552C5.5923 14.9538 6.57748 15.5569 7.7037 15.5569V14.5198C6.55985 14.5198 5.62963 13.5896 5.62963 12.4458C5.62963 11.3019 6.55985 10.3717 7.7037 10.3717C8.84756 10.3717 9.77778 11.3019 9.77778 12.4458H10.8148C10.8148 10.7901 9.51385 9.43627 7.88104 9.34345C8.27822 8.2162 9.31059 7.40575 10.5177 7.28805C10.7334 8.03627 11.1036 8.73783 11.6201 9.35642C12.7727 10.7357 13.4074 12.55 13.4074 14.4643V15.5569H18.5926V14.4659C18.5926 12.6335 19.2553 10.8109 20.5096 9.19568C20.9581 8.61805 21.2806 7.97249 21.4781 7.28753C22.6873 7.4042 23.7218 8.21464 24.1195 9.34345C22.4861 9.43627 21.1852 10.7901 21.1852 12.4458H22.2222C22.2222 11.3019 23.1524 10.3717 24.2963 10.3717C25.4401 10.3717 26.3704 11.3019 26.3704 12.4458C26.3704 13.5896 25.4401 14.5198 24.2963 14.5198V15.5569C25.4225 15.5569 26.4077 14.9538 26.9537 14.0552C27.5599 14.5437 27.9259 15.2857 27.9259 16.0754C27.9259 17.5049 26.7629 18.668 25.3333 18.668C24.6945 18.668 24.0801 18.4336 23.6046 18.0079L22.9129 18.7805C23.5792 19.3768 24.4384 19.705 25.3333 19.705C26.5633 19.705 27.6506 19.0885 28.3076 18.15C28.7281 18.7535 28.963 19.4753 28.963 20.2235C28.963 21.7127 28.0685 23.0339 26.6841 23.5903Z" fill="white"/>
<path d="M14.5175 19.7051H13.4805V20.7421H14.5175V19.7051Z" fill="white"/>
<path d="M23.8534 21.2607H22.8164V22.2978H23.8534V21.2607Z" fill="white"/>
<path d="M11.037 14H10V15.037H11.037V14Z" fill="white"/>
<path d="M15.037 25H14V26.037H15.037V25Z" fill="white"/>
<path d="M19.037 20H18V21.037H19.037V20Z" fill="white"/>
<path d="M24.037 13H23V14.037H24.037V13Z" fill="white"/>
<path d="M8.03704 21H7V22.037H8.03704V21Z" fill="white"/>
</svg>
