<svg width="32" height="32" viewBox="0 0 32 32" fill="none" xmlns="http://www.w3.org/2000/svg">
<path d="M16 17.8958L29.4822 10.7999L16 3.70402L2.51781 10.7999L16 17.8958ZM0.42756 10.092L15.6274 2.09206C15.8606 1.96931 16.1394 1.96931 16.3726 2.09206L31.5724 10.092C32.1423 10.3919 32.1423 11.2079 31.5724 11.5078L16.3726 19.5078C16.1394 19.6305 15.8606 19.6305 15.6274 19.5078L0.42756 11.5078C-0.142305 11.2079 -0.142305 10.3919 0.42756 10.092ZM16 22.6958L30.8273 14.8919C31.2182 14.6862 31.702 14.8363 31.9078 15.2273C32.1136 15.6182 31.9634 16.102 31.5724 16.3078L16.3726 24.3077C16.1394 24.4305 15.8606 24.4305 15.6274 24.3077L0.42756 16.3078C0.0365827 16.102 -0.113551 15.6182 0.0922262 15.2273C0.298004 14.8363 0.781769 14.6862 1.17275 14.8919L16 22.6958ZM16 27.4957L30.8273 19.6919C31.2182 19.4861 31.702 19.6362 31.9078 20.0272C32.1136 20.4182 31.9634 20.902 31.5724 21.1077L16.3726 29.1077C16.1394 29.2304 15.8606 29.2304 15.6274 29.1077L0.42756 21.1077C0.0365827 20.902 -0.113551 20.4182 0.0922262 20.0272C0.298004 19.6362 0.781769 19.4861 1.17275 19.6919L16 27.4957Z" fill="white"/>
</svg>
