<svg width="32" height="32" viewBox="0 0 32 32" fill="none" xmlns="http://www.w3.org/2000/svg">
<path d="M31 10C30.4447 10.1415 19.1367 17.3222 6.61441 18.9277M26.3568 12.0032C25.5823 11.5781 21.872 10.3448 17.137 11.4944C16.6928 11.6076 18.1441 12.8504 17.7148 13.0164C17.2502 13.163 14.89 12.18 14.4607 12.3459C12.7635 12.9763 11.172 13.6646 9.74163 14.3967C9.34747 14.582 11.9258 15.2832 11.5668 15.4878C11.2079 15.6924 7.93198 15.3669 7.62855 15.5574C3.37662 17.9985 0.798581 20.4658 1.01234 21.1186C1.16113 21.6465 4.64283 22.1742 6.66624 21.8568C7.06983 21.8106 10.8517 19.6024 11.2851 19.6617C11.6277 19.7159 10.2728 21.5605 8.70307 21.9038C10.4067 22.0356 12.862 22.0891 14.8001 21.6803C14.9667 21.6379 16.8392 19.0957 17.0261 19.0198C17.4148 18.9207 16.0421 21.3356 16.416 21.1838C21.8202 19.2414 27.1628 15.3908 27.0134 12.8544C26.8874 12.8299 26.9201 12.3124 26.3568 12.0032Z" stroke="white"/>
</svg>
