<svg width="32" height="33" viewBox="0 0 32 33" fill="none" xmlns="http://www.w3.org/2000/svg">
<path d="M15.9999 6.74221C16.8575 6.74221 17.5554 6.04429 17.5554 5.18666C17.5554 4.32903 16.8575 3.6311 15.9999 3.6311C15.1423 3.6311 14.4443 4.32903 14.4443 5.18666C14.4443 6.04429 15.1423 6.74221 15.9999 6.74221ZM15.9999 4.66814C16.2856 4.66814 16.5184 4.90096 16.5184 5.18666C16.5184 5.47236 16.2856 5.70518 15.9999 5.70518C15.7142 5.70518 15.4814 5.47236 15.4814 5.18666C15.4814 4.90096 15.7142 4.66814 15.9999 4.66814Z" fill="white"/>
<path d="M15.9999 17.631C15.4279 17.631 14.9628 17.1659 14.9628 16.594H13.9258C13.9258 17.7378 14.856 18.6681 15.9999 18.6681C17.1437 18.6681 18.0739 17.7378 18.0739 16.594H17.0369C17.0369 17.1659 16.5718 17.631 15.9999 17.631Z" fill="white"/>
<path d="M28.8095 17.1142C28.9085 16.785 28.963 16.4365 28.963 16.0756C28.963 14.8633 28.3459 13.734 27.3452 13.0641C27.3856 12.8639 27.4074 12.6576 27.4074 12.446C27.4074 11.0574 26.4927 9.87881 25.2343 9.48007C24.8563 7.76377 23.4107 6.4654 21.6752 6.25696C21.6923 6.07444 21.7037 5.89088 21.7037 5.70525C21.7037 4.0854 21.011 2.53607 19.8033 1.45496C18.5973 0.374884 16.9748 -0.140523 15.3513 0.0378474C12.8033 0.319922 10.7007 2.36392 10.3518 4.89896C10.2885 5.35785 10.2849 5.81155 10.3269 6.25644C8.59037 6.46437 7.1437 7.76325 6.7657 9.48007C5.50726 9.87881 4.59259 11.0574 4.59259 12.446C4.59259 12.6576 4.61437 12.8639 4.65481 13.0641C3.65407 13.734 3.03704 14.8633 3.03704 16.0756C3.03704 16.4365 3.09148 16.785 3.19052 17.1142C2.42933 17.9651 2 19.0706 2 20.2238C2 22.0313 3.02459 23.647 4.63615 24.4238C4.83993 25.8917 5.82615 27.1393 7.19607 27.6925C7.30652 30.1684 9.34948 32.1497 11.8519 32.1497C13.6579 32.1497 15.2248 31.1163 16 29.611C16.7752 31.1163 18.3421 32.1497 20.1481 32.1497C22.6505 32.1497 24.6935 30.1684 24.8039 27.6925C26.1733 27.1393 27.1596 25.8917 27.3633 24.4238C28.9754 23.647 30 22.0313 30 20.2238C30 19.0706 29.5707 17.9651 28.8095 17.1142ZM11.3795 5.04C11.6647 2.96903 13.383 1.29888 15.4654 1.06866C16.8161 0.91881 18.1104 1.33103 19.1116 2.22755C20.0999 3.11214 20.6667 4.37992 20.6667 5.70525C20.6667 6.74955 20.3291 7.73681 19.6903 8.5597C18.7528 9.76733 18.1197 11.0859 17.7998 12.446H16.5185V7.77933H15.4815V12.446H14.2204C13.9166 11.0501 13.3063 9.75748 12.416 8.6914C11.5636 7.67148 11.1954 6.37518 11.3795 5.04ZM14.3884 13.483H17.6183C17.581 13.8097 17.5556 14.1374 17.5556 14.4661V14.5201H14.4444V14.4646C14.4444 14.1338 14.4216 13.8071 14.3884 13.483ZM26.6841 23.5905L26.3797 23.7129L26.36 24.0406C26.2952 25.1274 25.659 26.0841 24.7261 26.5876C24.3077 24.4419 22.4151 22.8164 20.1481 22.8164V23.8534C22.1496 23.8534 23.7778 25.4816 23.7778 27.483C23.7778 29.4845 22.1496 31.1127 20.1481 31.1127C18.1467 31.1127 16.5185 29.4845 16.5185 27.483V21.7793H15.4815V27.483C15.4815 29.4845 13.8533 31.1127 11.8519 31.1127C9.85037 31.1127 8.22222 29.4845 8.22222 27.483C8.22222 25.4816 9.85037 23.8534 11.8519 23.8534V22.8164C9.58489 22.8164 7.6923 24.4419 7.27333 26.5876C6.34052 26.0841 5.7043 25.1274 5.63948 24.0406L5.61978 23.7129L5.31541 23.5905C3.93148 23.0341 3.03704 21.713 3.03704 20.2238C3.03704 19.4756 3.27193 18.7538 3.69244 18.1502C4.34941 19.0887 5.43674 19.7053 6.66667 19.7053C7.56163 19.7053 8.42081 19.377 9.08711 18.7807L8.39541 18.0081C7.91993 18.4338 7.30548 18.6682 6.66667 18.6682C5.23711 18.6682 4.07407 17.5052 4.07407 16.0756C4.07407 15.2859 4.44015 14.5439 5.0463 14.0555C5.5923 14.9541 6.57748 15.5571 7.7037 15.5571V14.5201C6.55985 14.5201 5.62963 13.5898 5.62963 12.446C5.62963 11.3021 6.55985 10.3719 7.7037 10.3719C8.84756 10.3719 9.77778 11.3021 9.77778 12.446H10.8148C10.8148 10.7904 9.51385 9.43651 7.88104 9.3437C8.27822 8.21644 9.31059 7.406 10.5177 7.28829C10.7334 8.03651 11.1036 8.73807 11.6201 9.35666C12.7727 10.7359 13.4074 12.5502 13.4074 14.4646V15.5571H18.5926V14.4661C18.5926 12.6337 19.2553 10.8111 20.5096 9.19592C20.9581 8.61829 21.2806 7.97274 21.4781 7.28777C22.6873 7.40444 23.7218 8.21488 24.1195 9.3437C22.4861 9.43651 21.1852 10.7904 21.1852 12.446H22.2222C22.2222 11.3021 23.1524 10.3719 24.2963 10.3719C25.4401 10.3719 26.3704 11.3021 26.3704 12.446C26.3704 13.5898 25.4401 14.5201 24.2963 14.5201V15.5571C25.4225 15.5571 26.4077 14.9541 26.9537 14.0555C27.5599 14.5439 27.9259 15.2859 27.9259 16.0756C27.9259 17.5052 26.7629 18.6682 25.3333 18.6682C24.6945 18.6682 24.0801 18.4338 23.6046 18.0081L22.9129 18.7807C23.5792 19.377 24.4384 19.7053 25.3333 19.7053C26.5633 19.7053 27.6506 19.0887 28.3076 18.1502C28.7281 18.7538 28.963 19.4756 28.963 20.2238C28.963 21.713 28.0685 23.0341 26.6841 23.5905Z" fill="white"/>
<path d="M14.5185 19.7051H13.4814V20.7421H14.5185V19.7051Z" fill="white"/>
<path d="M23.8515 21.2607H22.8145V22.2978H23.8515V21.2607Z" fill="white"/>
<path d="M11.037 14H10V15.037H11.037V14Z" fill="white"/>
<path d="M15.037 25H14V26.037H15.037V25Z" fill="white"/>
<path d="M19.037 20H18V21.037H19.037V20Z" fill="white"/>
<path d="M24.037 13H23V14.037H24.037V13Z" fill="white"/>
<path d="M8.03704 21H7V22.037H8.03704V21Z" fill="white"/>
</svg>
