<svg width="32" height="32" viewBox="0 0 32 32" fill="none" xmlns="http://www.w3.org/2000/svg">
<path d="M23.738 20.2454C23.5035 20.0167 23.2035 19.8727 22.883 19.8348C22.5624 19.7969 22.2387 19.8673 21.9602 20.0354L21.4758 18.0054V17.9604V17.9204C21.452 17.8666 21.4192 17.8175 21.3789 17.7754L20.6958 17.0705C20.5608 16.9306 20.4004 16.8197 20.2238 16.744C20.0471 16.6682 19.8577 16.6293 19.6665 16.6293C19.4752 16.6293 19.2858 16.6682 19.1092 16.744C18.9325 16.8197 18.7721 16.9306 18.6371 17.0705L18.2931 16.7105L24.7068 10.0255C24.7632 9.96788 24.8324 9.92542 24.9085 9.90188C24.9845 9.87834 25.065 9.87444 25.1428 9.89053C25.8809 10.0546 26.6462 10.0358 27.3759 9.83553C28.2035 9.60524 28.9581 9.1548 29.5642 8.52921C30.1703 7.90362 30.6067 7.12479 30.8298 6.27056C30.9838 5.67607 31.0282 5.057 30.9606 4.44558C30.9399 4.2575 30.868 4.07933 30.7531 3.9318C30.6382 3.78426 30.4851 3.67342 30.3116 3.61215C30.138 3.55088 29.9512 3.5417 29.7729 3.58568C29.5945 3.62966 29.4319 3.72499 29.3039 3.86059L27.9572 5.28058C27.9122 5.32744 27.8586 5.36464 27.7996 5.39002C27.7406 5.4154 27.6772 5.42847 27.6133 5.42847C27.5493 5.42847 27.486 5.4154 27.427 5.39002C27.368 5.36464 27.3144 5.32744 27.2694 5.28058L25.913 3.86559C25.8669 3.81769 25.8307 3.76065 25.8066 3.69792C25.7824 3.6352 25.7709 3.56807 25.7725 3.50059C25.7721 3.4336 25.7848 3.36721 25.8098 3.30537C25.8347 3.24353 25.8715 3.18749 25.9178 3.1406L27.2694 1.72061C27.3985 1.58709 27.4884 1.41858 27.5287 1.23455C27.569 1.05052 27.558 0.858487 27.497 0.680623C27.4353 0.506429 27.3279 0.353385 27.1867 0.238598C27.0456 0.123811 26.8763 0.0518056 26.6978 0.0306302C25.5413 -0.102077 24.3773 0.199269 23.4184 0.879569C22.4596 1.55987 21.77 2.57367 21.4758 3.73559C21.2816 4.48705 21.2633 5.27539 21.4225 6.03557C21.4437 6.1161 21.4451 6.20083 21.4265 6.28206C21.4079 6.36328 21.3698 6.43839 21.3159 6.50056L14.8199 13.1705L6.89484 5.00058L6.64294 3.68059C6.58736 3.38898 6.44911 3.12098 6.24572 2.9106L3.71223 0.295627C3.62225 0.202652 3.5154 0.128894 3.39778 0.07857C3.28017 0.0282462 3.1541 0.00234386 3.02678 0.00234386C2.89946 0.00234386 2.77339 0.0282462 2.65577 0.07857C2.53816 0.128894 2.43131 0.202652 2.34133 0.295627L0.287407 2.41561C0.197329 2.50848 0.125869 2.61876 0.0771132 2.74016C0.0283574 2.86156 0.00326214 2.99168 0.00326214 3.1231C0.00326214 3.25451 0.0283574 3.38464 0.0771132 3.50603C0.125869 3.62743 0.197329 3.73772 0.287407 3.83059L2.81606 6.44556C3.01988 6.65549 3.27953 6.79819 3.56206 6.85556L4.84091 7.11556L12.7611 15.2955L6.29901 22.0004C6.24261 22.058 6.17336 22.1005 6.09734 22.124C6.02132 22.1476 5.94086 22.1515 5.86303 22.1354C5.1249 21.9713 4.35959 21.9901 3.62988 22.1904C2.80248 22.4162 2.04686 22.8619 1.43831 23.483C0.829758 24.1041 0.389519 24.8789 0.161459 25.7304C0.00744542 26.3249 -0.0369224 26.9439 0.0306671 27.5553C0.0524021 27.7413 0.124323 27.9173 0.238232 28.0632C0.352142 28.209 0.503459 28.3189 0.67494 28.3803C0.84836 28.4437 1.03566 28.4547 1.21495 28.4122C1.39424 28.3697 1.5581 28.2754 1.68737 28.1403L3.03404 26.7204C3.07908 26.6735 3.13265 26.6363 3.19168 26.6109C3.25072 26.5855 3.31403 26.5725 3.37798 26.5725C3.44193 26.5725 3.50524 26.5855 3.56427 26.6109C3.6233 26.6363 3.67688 26.6735 3.72191 26.7204L5.09281 28.1353C5.1823 28.2285 5.23276 28.3542 5.23329 28.4853C5.23367 28.5523 5.221 28.6187 5.19604 28.6806C5.17107 28.7424 5.13432 28.7984 5.08797 28.8453L3.73645 30.2653C3.60641 30.3979 3.51537 30.5658 3.47384 30.7495C3.43232 30.9333 3.442 31.1254 3.50178 31.3037C3.56156 31.482 3.66899 31.6392 3.81166 31.7572C3.95433 31.8751 4.12643 31.949 4.30806 31.9703C4.48664 31.9903 4.66613 32.0003 4.84576 32.0003C5.91673 31.9998 6.95734 31.633 7.80488 30.9572C8.65242 30.2814 9.2591 29.3348 9.53006 28.2653C9.72423 27.5139 9.74249 26.7255 9.58334 25.9654C9.5621 25.8848 9.56072 25.8001 9.57933 25.7189C9.59795 25.6377 9.63596 25.5625 9.68992 25.5004L16.1859 18.8304L16.5347 19.1854C16.3992 19.3248 16.2917 19.4904 16.2184 19.6727C16.145 19.855 16.1073 20.0505 16.1073 20.2479C16.1073 20.4453 16.145 20.6408 16.2184 20.8231C16.2917 21.0055 16.3992 21.1711 16.5347 21.3104L17.2177 22.0004C17.2585 22.0421 17.306 22.0759 17.3582 22.1004H17.397H17.4406L19.4024 22.6004C19.2182 22.8932 19.1387 23.2432 19.1776 23.59C19.2165 23.9368 19.3714 24.2588 19.6156 24.5004L26.4701 31.5603C26.7426 31.8412 27.1119 31.999 27.497 31.999C27.8821 31.999 28.2515 31.8412 28.524 31.5603L30.5779 29.4403C30.8501 29.1591 31.0029 28.7778 31.0029 28.3803C31.0029 27.9828 30.8501 27.6016 30.5779 27.3203L23.738 20.2454ZM21.9795 7.19056C22.1494 7.01439 22.2741 6.79743 22.3426 6.55918C22.4111 6.32092 22.4212 6.06883 22.3719 5.82557C22.2466 5.22246 22.2599 4.59745 22.4107 4.00059C22.5879 3.31223 22.9385 2.68457 23.4269 2.18137C23.9153 1.67817 24.524 1.31737 25.1912 1.13562C25.6501 1.0066 26.1288 0.970943 26.6009 1.03062L25.23 2.4506C25.0945 2.58996 24.987 2.75555 24.9136 2.93787C24.8403 3.1202 24.8025 3.31567 24.8025 3.51309C24.8025 3.71051 24.8403 3.90599 24.9136 4.08832C24.987 4.27064 25.0945 4.43623 25.23 4.57558L26.6009 6.00057C26.7359 6.14041 26.8963 6.25136 27.073 6.32707C27.2496 6.40277 27.439 6.44175 27.6303 6.44175C27.8215 6.44175 28.0109 6.40277 28.1875 6.32707C28.3642 6.25136 28.5246 6.14041 28.6596 6.00057L30.0354 4.55558C30.0794 5.04145 30.035 5.53153 29.9046 6.00057C29.7263 6.68352 29.3775 7.3062 28.8929 7.80634C28.4084 8.30648 27.8051 8.66655 27.1434 8.85054C26.5609 9.01105 25.9495 9.02477 25.3608 8.89054C25.1243 8.83881 24.8792 8.84875 24.6474 8.91946C24.4156 8.99018 24.2046 9.11944 24.0335 9.29553L17.5568 16.0005L15.5029 13.8805L21.9795 7.19056ZM9.02627 24.8104C8.85643 24.9865 8.73166 25.2035 8.66317 25.4417C8.59468 25.68 8.58462 25.9321 8.63389 26.1754C8.7592 26.7785 8.74593 27.4035 8.59514 28.0003C8.41733 28.6835 8.06863 29.3064 7.584 29.8067C7.09938 30.3069 6.49586 30.6668 5.83397 30.8503C5.37513 30.9793 4.89635 31.015 4.42432 30.9553L5.77584 29.5303C6.04798 29.2491 6.20084 28.8678 6.20084 28.4703C6.20084 28.0728 6.04798 27.6916 5.77584 27.4103L4.40494 26.0004C4.26993 25.8605 4.1095 25.7496 3.93286 25.6739C3.75621 25.5982 3.56683 25.5592 3.37556 25.5592C3.18429 25.5592 2.9949 25.5982 2.81826 25.6739C2.64161 25.7496 2.48119 25.8605 2.34617 26.0004L0.994654 27.4403C0.943355 26.9577 0.979494 26.4694 1.10123 26.0004C1.27776 25.3119 1.62748 24.6839 2.11493 24.1799C2.60238 23.6759 3.21024 23.3138 3.87693 23.1304C4.4598 22.9724 5.0706 22.9587 5.65958 23.0904C5.896 23.1421 6.14118 23.1322 6.37294 23.0615C6.6047 22.9907 6.81571 22.8615 6.98688 22.6854L13.449 16.0005L15.5029 18.1204L9.02627 24.8104ZM19.6156 17.6254C19.6793 17.6251 19.7425 17.6377 19.8016 17.6626C19.8606 17.6874 19.9143 17.7241 19.9595 17.7704L20.3035 18.1254L17.5617 20.9554L17.2177 20.6004C17.1275 20.5067 17.0769 20.38 17.0769 20.2479C17.0769 20.1158 17.1275 19.9891 17.2177 19.8954L19.2765 17.7704C19.3667 17.6781 19.4885 17.626 19.6156 17.6254ZM3.02436 1.00062L3.87693 1.88561L1.82785 4.00059L0.970434 3.1206L3.02436 1.00062ZM3.50877 5.73557L2.16694 4.36058L4.22571 2.23561L5.55785 3.61559C5.62655 3.68484 5.67376 3.77359 5.69349 3.87059L5.92601 5.08058L4.92327 6.11557L3.75098 5.87557C3.65701 5.85521 3.57102 5.80648 3.50393 5.73557H3.50877ZM5.77099 6.65556L6.45402 5.95057L17.925 17.7704L17.2177 18.5004L5.77099 6.65556ZM20.7297 19.1054L21.1415 20.8004L20.1727 21.8004L18.5305 21.3754L20.7297 19.1054ZM29.8949 28.7303L27.8361 30.8553C27.7454 30.9484 27.6226 31.0007 27.4946 31.0007C27.3666 31.0007 27.2439 30.9484 27.1531 30.8553L20.3035 23.7804C20.214 23.6873 20.1635 23.5616 20.163 23.4304C20.1626 23.3646 20.1748 23.2994 20.1989 23.2384C20.223 23.1775 20.2586 23.1221 20.3035 23.0754L22.3574 20.9554C22.4027 20.9091 22.4563 20.8724 22.5154 20.8475C22.5744 20.8226 22.6376 20.81 22.7013 20.8104C22.8284 20.811 22.9502 20.863 23.0404 20.9554L29.8949 28.0253C29.9398 28.0721 29.9753 28.1275 29.9994 28.1884C30.0235 28.2493 30.0357 28.3145 30.0354 28.3803C30.0348 28.5115 29.9844 28.6372 29.8949 28.7303Z" fill="white"/>
<path d="M21.5006 23.2502C21.4553 23.2044 21.3944 23.1787 21.331 23.1787C21.2676 23.1787 21.2068 23.2044 21.1615 23.2502C21.1388 23.2734 21.1208 23.3011 21.1085 23.3315C21.0962 23.362 21.0898 23.3947 21.0898 23.4277C21.0898 23.4607 21.0962 23.4934 21.1085 23.5238C21.1208 23.5543 21.1388 23.5819 21.1615 23.6052L27.3233 29.9701C27.3695 30.018 27.4322 30.0449 27.4976 30.0451C27.5293 30.0449 27.5606 30.0382 27.5898 30.0253C27.6189 30.0124 27.6452 29.9937 27.6672 29.9701C27.6899 29.9469 27.7079 29.9192 27.7202 29.8887C27.7325 29.8583 27.7388 29.8256 27.7388 29.7926C27.7388 29.7596 27.7325 29.7269 27.7202 29.6965C27.7079 29.666 27.6899 29.6383 27.6672 29.6151L21.5006 23.2502Z" fill="white"/>
<path d="M22.1867 22.5452C22.141 22.4981 22.0792 22.4717 22.0147 22.4717C21.9502 22.4717 21.8883 22.4981 21.8427 22.5452C21.7971 22.5923 21.7715 22.6561 21.7715 22.7227C21.7715 22.7893 21.7971 22.8531 21.8427 22.9002L28.0093 29.2601C28.0313 29.2837 28.0576 29.3024 28.0868 29.3153C28.1159 29.3282 28.1472 29.3349 28.1789 29.3351C28.2106 29.3355 28.2421 29.3291 28.2713 29.3161C28.3005 29.3032 28.3268 29.2841 28.3484 29.2601C28.3716 29.2377 28.3901 29.2106 28.4027 29.1805C28.4153 29.1504 28.4218 29.1179 28.4218 29.0851C28.4218 29.0523 28.4153 29.0199 28.4027 28.9898C28.3901 28.9597 28.3716 28.9326 28.3484 28.9101L22.1867 22.5452Z" fill="white"/>
<path d="M22.8702 21.8406C22.8477 21.8171 22.8209 21.7985 22.7914 21.7858C22.7619 21.7731 22.7302 21.7666 22.6982 21.7666C22.6663 21.7666 22.6346 21.7731 22.6051 21.7858C22.5756 21.7985 22.5488 21.8171 22.5263 21.8406C22.4819 21.8873 22.457 21.9501 22.457 22.0155C22.457 22.081 22.4819 22.1438 22.5263 22.1905L28.6929 28.5555C28.7391 28.6033 28.8018 28.6303 28.8673 28.6305C28.9312 28.6295 28.9921 28.6026 29.0368 28.5555C29.0815 28.5079 29.1065 28.4442 29.1065 28.378C29.1065 28.3117 29.0815 28.2481 29.0368 28.2005L22.8702 21.8406Z" fill="white"/>
</svg>
