<svg width="32" height="32" viewBox="0 0 32 32" fill="none" xmlns="http://www.w3.org/2000/svg">
<path d="M16.5333 2.14688V0.533333C16.5333 0.391885 16.4771 0.256229 16.3771 0.15621C16.2771 0.0561903 16.1414 0 16 0C15.8586 0 15.7229 0.0561903 15.6229 0.15621C15.5229 0.256229 15.4667 0.391885 15.4667 0.533333V2.14688C11.32 2.28919 7.39037 4.03517 4.50538 7.01711C1.62039 9.99905 0.00521321 13.9842 0 18.1333C0 18.2748 0.0561903 18.4104 0.15621 18.5105C0.256229 18.6105 0.391885 18.6667 0.533333 18.6667C0.674782 18.6667 0.810438 18.6105 0.910457 18.5105C1.01048 18.4104 1.06667 18.2748 1.06667 18.1333C1.06675 17.4584 1.33354 16.8109 1.80892 16.3318C2.28429 15.8528 2.92973 15.581 3.60461 15.5757C4.27949 15.5704 4.92912 15.832 5.41196 16.3036C5.8948 16.7751 6.17173 17.4184 6.1824 18.0932C6.18576 18.143 6.18853 18.1791 6.18907 18.1844C6.19484 18.2136 6.20321 18.2423 6.21408 18.2701C6.22001 18.3 6.22854 18.3293 6.23957 18.3577C6.25708 18.3911 6.27822 18.4225 6.30261 18.4513C6.31797 18.475 6.33522 18.4974 6.35419 18.5183C6.38544 18.5452 6.41972 18.5683 6.45632 18.5872C6.4764 18.6017 6.4975 18.6148 6.51947 18.6262C6.5828 18.6526 6.65066 18.6663 6.71925 18.6667H6.72C6.73696 18.6667 6.75392 18.6657 6.77088 18.6641C6.79662 18.6585 6.82187 18.6508 6.8464 18.6412C6.88188 18.6343 6.91656 18.6238 6.94987 18.6098C6.97914 18.594 7.00679 18.5753 7.03243 18.5541C7.09113 18.5188 7.13824 18.4671 7.168 18.4053C7.18707 18.3773 7.20331 18.3474 7.21648 18.3161C7.2269 18.2823 7.23389 18.2476 7.23733 18.2124C7.24478 18.1865 7.25013 18.1601 7.25333 18.1333C7.25253 17.4587 7.51827 16.8111 7.99269 16.3315C8.46711 15.8519 9.11179 15.5791 9.78637 15.5726C10.461 15.566 11.1108 15.8262 11.5944 16.2965C12.0781 16.7668 12.3563 17.4092 12.3686 18.0837C12.3716 18.1254 12.374 18.158 12.3752 18.1743C12.3807 18.2061 12.3893 18.2373 12.4007 18.2675C12.4062 18.297 12.4141 18.326 12.4245 18.3542C12.4422 18.3882 12.4637 18.4201 12.4885 18.4493C12.523 18.5114 12.5775 18.5598 12.6431 18.5869C12.6628 18.6013 12.6834 18.6143 12.7049 18.6258C12.7687 18.6525 12.8371 18.6664 12.9062 18.6667C12.9197 18.6667 12.9339 18.6662 12.9477 18.6652C12.9755 18.6597 13.0029 18.6519 13.0295 18.6419C13.0646 18.6357 13.099 18.6259 13.1322 18.6127C13.1613 18.597 13.1888 18.5784 13.2143 18.5574C13.2738 18.524 13.3214 18.473 13.3506 18.4114C13.3708 18.383 13.3881 18.3526 13.4022 18.3207C13.4124 18.2874 13.4193 18.253 13.4228 18.2183C13.431 18.1905 13.4367 18.1621 13.44 18.1333C13.4411 17.7506 13.5278 17.3729 13.694 17.0281C13.8601 16.6833 14.1013 16.38 14.4 16.1406V27.4667C14.4 27.8203 14.2595 28.1594 14.0095 28.4095C13.7594 28.6595 13.4203 28.8 13.0667 28.8C12.713 28.8 12.3739 28.6595 12.1239 28.4095C11.8738 28.1594 11.7333 27.8203 11.7333 27.4667V26.6667C11.7333 26.2423 11.5648 25.8354 11.2647 25.5353C10.9646 25.2352 10.5577 25.0667 10.1333 25.0667C9.70899 25.0667 9.30202 25.2352 9.00196 25.5353C8.7019 25.8354 8.53333 26.2423 8.53333 26.6667V27.4667C8.53333 28.669 9.01095 29.8221 9.86112 30.6722C10.7113 31.5224 11.8644 32 13.0667 32C14.269 32 15.4221 31.5224 16.2722 30.6722C17.1224 29.8221 17.6 28.669 17.6 27.4667V16.1403C17.8987 16.3797 18.1399 16.683 18.3061 17.0279C18.4722 17.3728 18.559 17.7505 18.56 18.1333C18.5633 18.1619 18.569 18.1902 18.5771 18.2179C18.5806 18.2527 18.5875 18.2871 18.5978 18.3206C18.6118 18.3525 18.629 18.3829 18.6492 18.4113C18.6785 18.4729 18.7261 18.5239 18.7855 18.5574C18.8111 18.5785 18.8386 18.597 18.8677 18.6128C18.9009 18.6259 18.9353 18.6357 18.9703 18.642C18.9969 18.652 19.0243 18.6598 19.0522 18.6652C19.066 18.6662 19.0798 18.6667 19.0932 18.6667H19.0939C19.163 18.6665 19.2314 18.6526 19.2953 18.626C19.3169 18.6144 19.3376 18.6014 19.3573 18.5869C19.4229 18.5598 19.4774 18.5113 19.512 18.4494C19.5368 18.4202 19.5582 18.3884 19.576 18.3545C19.5864 18.3261 19.5944 18.297 19.5999 18.2674C19.6113 18.2373 19.6198 18.2062 19.6253 18.1745C19.6266 18.158 19.629 18.1255 19.6319 18.0838C19.6496 17.4131 19.9302 16.7762 20.4132 16.3104C20.8961 15.8447 21.5427 15.5873 22.2136 15.5938C22.8845 15.6003 23.526 15.8701 23.9999 16.3452C24.4737 16.8202 24.7419 17.4624 24.7467 18.1333C24.7499 18.1607 24.7553 18.1877 24.763 18.2142C24.7664 18.2486 24.7733 18.2825 24.7835 18.3155C24.797 18.3479 24.8138 18.3789 24.8337 18.4078C24.8637 18.4693 24.9111 18.5207 24.97 18.5556C24.9948 18.576 25.0214 18.594 25.0496 18.6093C25.0835 18.6237 25.1188 18.6344 25.1549 18.6413C25.1792 18.6508 25.2042 18.6584 25.2296 18.6639C25.2466 18.6655 25.2635 18.6665 25.2799 18.6665H25.2806C25.3493 18.6662 25.4173 18.6524 25.4807 18.626C25.5018 18.615 25.5221 18.6025 25.5414 18.5887C25.6065 18.5614 25.6609 18.5136 25.6964 18.4526C25.7212 18.4234 25.7427 18.3915 25.7604 18.3576C25.7714 18.3293 25.7799 18.3001 25.7858 18.2703C25.7967 18.2425 25.8051 18.2137 25.8108 18.1844C25.8114 18.1791 25.8141 18.143 25.8175 18.0932C25.826 17.4169 26.1019 16.7715 26.585 16.2981C27.0681 15.8248 27.719 15.562 28.3954 15.5673C29.0717 15.5726 29.7184 15.8456 30.194 16.3264C30.6697 16.8073 30.9355 17.457 30.9333 18.1333C30.9333 18.2748 30.9895 18.4104 31.0895 18.5105C31.1896 18.6105 31.3252 18.6667 31.4667 18.6667C31.6081 18.6667 31.7438 18.6105 31.8438 18.5105C31.9438 18.4104 32 18.2748 32 18.1333C31.9948 13.9842 30.3796 9.99905 27.4946 7.01711C24.6096 4.03517 20.68 2.28919 16.5333 2.14688ZM6.23253 15.6218C5.60309 14.9637 4.74829 14.5678 3.83932 14.5133C2.93035 14.4587 2.03433 14.7496 1.33072 15.3276C1.89609 12.4043 3.32009 9.71579 5.42082 7.60565C7.52154 5.49551 10.2036 4.0595 13.1244 3.48107C7.81205 6.76736 6.5168 12.3633 6.23253 15.6218ZM12.2863 15.488C11.6113 14.8529 10.7178 14.5017 9.791 14.507C8.86414 14.5123 7.97482 14.8738 7.30709 15.5166C7.61573 12.3107 8.97355 6.89264 14.4168 3.96923C12.5894 7.29979 12.2811 12.3852 12.2863 15.488ZM16.5333 27.4667C16.5333 28.3861 16.1681 29.2678 15.518 29.918C14.8678 30.5681 13.9861 30.9333 13.0667 30.9333C12.1473 30.9333 11.2655 30.5681 10.6154 29.918C9.96524 29.2678 9.6 28.3861 9.6 27.4667V26.6667C9.6 26.5252 9.65619 26.3896 9.75621 26.2895C9.85623 26.1895 9.99189 26.1333 10.1333 26.1333C10.2748 26.1333 10.4104 26.1895 10.5105 26.2895C10.6105 26.3896 10.6667 26.5252 10.6667 26.6667V27.4667C10.6667 28.1032 10.9195 28.7136 11.3696 29.1637C11.8197 29.6138 12.4301 29.8667 13.0667 29.8667C13.7032 29.8667 14.3136 29.6138 14.7637 29.1637C15.2138 28.7136 15.4667 28.1032 15.4667 27.4667V15.6369C15.4802 15.634 15.4933 15.6287 15.5069 15.6262C15.8321 15.5623 16.1666 15.5623 16.4917 15.6262C16.5058 15.629 16.5194 15.6346 16.5333 15.6376V27.4667ZM17.6 14.8942V14.8604L17.2516 14.7318C16.4447 14.4333 15.5577 14.4329 14.7505 14.7307L14.7477 14.7321L14.4 14.8604V14.8942C14.0102 15.0854 13.6582 15.3456 13.3611 15.6622C13.3485 12.3342 13.6831 6.43707 16 3.48341C18.3169 6.43696 18.6514 12.3335 18.6389 15.6618C18.3418 15.3453 17.9898 15.0852 17.6 14.8942ZM22.1867 14.5067C21.2675 14.5071 20.3832 14.858 19.7139 15.488C19.7192 12.384 19.4105 7.29461 17.5805 3.96395C23.1194 6.91275 24.4439 12.3399 24.7212 15.543C24.045 14.8785 23.1347 14.5063 22.1867 14.5067ZM28.3733 14.5067C27.8862 14.5071 27.4042 14.6061 26.9563 14.7977C26.5085 14.9893 26.104 15.2696 25.7674 15.6217C25.4831 12.363 24.1878 6.76725 18.8755 3.48096C21.7963 4.05939 24.4784 5.4954 26.5792 7.60556C28.6799 9.71572 30.1039 12.4042 30.6693 15.3276C30.0222 14.7962 29.2107 14.506 28.3733 14.5067Z" fill="white"/>
</svg>
