<svg width="32" height="32" viewBox="0 0 32 32" fill="none" xmlns="http://www.w3.org/2000/svg">
<path d="M27.9722 9.08576C27.6339 9.08698 27.3008 9.16865 27.0004 9.32403C26.7001 9.4794 26.4411 9.70399 26.245 9.97919C26.049 10.2544 25.9214 10.5723 25.873 10.9065C25.8245 11.2407 25.8566 11.5817 25.9665 11.9011L21.9067 14.2984L17.5602 5.62333C17.8567 5.32563 18.0582 4.94696 18.1394 4.53508C18.2205 4.12319 18.1776 3.69655 18.0161 3.30897C17.8546 2.92139 17.5818 2.59023 17.2319 2.35728C16.8821 2.12432 16.471 2 16.0505 2C15.63 2 15.2189 2.12432 14.8691 2.35728C14.5193 2.59023 14.2464 2.92139 14.0849 3.30897C13.9235 3.69655 13.8806 4.12319 13.9617 4.53508C14.0428 4.94696 14.2443 5.32563 14.5408 5.62333L10.1918 14.2934L6.12699 11.896C6.23584 11.577 6.26712 11.2367 6.21827 10.9033C6.16941 10.5698 6.04181 10.2527 5.846 9.97822C5.65018 9.70371 5.39178 9.47961 5.0921 9.32443C4.79243 9.16926 4.46008 9.08745 4.12249 9.08576C3.55789 9.08744 3.01709 9.31295 2.61904 9.71266C2.221 10.1124 1.99833 10.6536 2.00001 11.2172C2.00169 11.7808 2.22759 12.3206 2.62801 12.718C3.02844 13.1153 3.57058 13.3376 4.13518 13.3359L7.11275 27.4491C7.13285 27.5447 7.18531 27.6305 7.26132 27.6921C7.33733 27.7537 7.43225 27.7873 7.53014 27.7872H24.5646C24.6621 27.7869 24.7565 27.7532 24.8321 27.6916C24.9076 27.63 24.9596 27.5444 24.9794 27.4491L27.9595 13.3309C28.5056 13.3059 29.0211 13.0722 29.3993 12.6782C29.7775 12.2842 29.9894 11.76 29.991 11.2143C29.9926 10.6687 29.7839 10.1433 29.4081 9.747C29.0323 9.35074 28.5181 9.11398 27.9722 9.08576ZM16.0467 2.84603C16.3856 2.84603 16.7105 2.98039 16.9501 3.21956C17.1897 3.45872 17.3243 3.7831 17.3243 4.12133C17.3243 4.45956 17.1897 4.78394 16.9501 5.02311C16.7105 5.26227 16.3856 5.39663 16.0467 5.39663C15.7079 5.39663 15.3829 5.26227 15.1434 5.02311C14.9038 4.78394 14.7692 4.45956 14.7692 4.12133C14.7692 3.7831 14.9038 3.45872 15.1434 3.21956C15.3829 2.98039 15.7079 2.84603 16.0467 2.84603ZM2.84368 11.207C2.85414 10.8756 2.99339 10.5612 3.23195 10.3305C3.47052 10.0997 3.78967 9.97068 4.12186 9.97068C4.45405 9.97068 4.7732 10.0997 5.01177 10.3305C5.25033 10.5612 5.38958 10.8756 5.40004 11.207C5.38958 11.5385 5.25033 11.8529 5.01177 12.0836C4.7732 12.3144 4.45405 12.4434 4.12186 12.4434C3.78967 12.4434 3.47052 12.3144 3.23195 12.0836C2.99339 11.8529 2.85414 11.5385 2.84368 11.207ZM24.2182 26.9425H7.87522L4.9687 13.1548C5.24529 13.0337 5.49304 12.8554 5.69564 12.6318L10.1525 15.2609C10.2026 15.2911 10.2586 15.3106 10.3167 15.318C10.3748 15.3254 10.4338 15.3206 10.4899 15.304C10.5458 15.2871 10.5977 15.2591 10.6424 15.2217C10.6871 15.1842 10.7237 15.1381 10.75 15.0861L15.2538 6.09444C15.7629 6.30153 16.333 6.30153 16.8422 6.09444L21.346 15.0861C21.3726 15.1382 21.4094 15.1843 21.4543 15.2217C21.4992 15.2591 21.5513 15.2871 21.6073 15.304C21.6633 15.32 21.722 15.3245 21.7799 15.3171C21.8377 15.3097 21.8934 15.2906 21.9435 15.2609L26.4003 12.6318C26.6017 12.8572 26.8492 13.0368 27.126 13.1586L24.2182 26.9425ZM27.9722 12.4823C27.6334 12.4823 27.3084 12.348 27.0689 12.1088C26.8293 11.8697 26.6947 11.5453 26.6947 11.207C26.6947 10.8688 26.8293 10.5444 27.0689 10.3053C27.3084 10.0661 27.6334 9.93174 27.9722 9.93174C28.311 9.93174 28.636 10.0661 28.8756 10.3053C29.1152 10.5444 29.2498 10.8688 29.2498 11.207C29.2498 11.5453 29.1152 11.8697 28.8756 12.1088C28.636 12.348 28.311 12.4823 27.9722 12.4823ZM26.8368 30.0542H5.25795C5.14909 30.0482 5.04663 30.0009 4.97167 29.9218C4.89671 29.8428 4.85493 29.7381 4.85493 29.6293C4.85493 29.5204 4.89671 29.4157 4.97167 29.3367C5.04663 29.2577 5.14909 29.2103 5.25795 29.2044H26.8368C26.9456 29.2103 27.0481 29.2577 27.123 29.3367C27.198 29.4157 27.2398 29.5204 27.2398 29.6293C27.2398 29.7381 27.198 29.8428 27.123 29.9218C27.0481 30.0009 26.9456 30.0482 26.8368 30.0542ZM20.8842 17.8748L17.8064 17.4278L16.4286 14.6416C16.3891 14.5761 16.3333 14.5218 16.2666 14.4841C16.1999 14.4465 16.1246 14.4267 16.048 14.4267C15.9714 14.4267 15.896 14.4465 15.8293 14.4841C15.7627 14.5218 15.7069 14.5761 15.6674 14.6416L14.2909 17.4278L11.2118 17.8748C11.1332 17.8863 11.0593 17.9195 10.9985 17.9707C10.9378 18.0219 10.8926 18.089 10.868 18.1645C10.8435 18.24 10.8406 18.3208 10.8596 18.3979C10.8787 18.4749 10.9189 18.5451 10.9758 18.6005L13.2036 20.7674L12.6733 23.8296C12.6598 23.9078 12.6685 23.9882 12.6984 24.0617C12.7284 24.1351 12.7784 24.1988 12.8427 24.2453C12.907 24.2919 12.9832 24.3195 13.0624 24.325C13.1417 24.3306 13.221 24.3138 13.2912 24.2767L16.0442 22.8317L18.801 24.283C18.8712 24.3202 18.9505 24.3369 19.0297 24.3314C19.109 24.3258 19.1851 24.2982 19.2495 24.2517C19.3138 24.2051 19.3638 24.1415 19.3937 24.068C19.4237 23.9945 19.4324 23.9141 19.4188 23.836L18.8898 20.7674L21.1176 18.6005C21.1735 18.5449 21.213 18.4749 21.2316 18.3983C21.2503 18.3217 21.2474 18.2415 21.2232 18.1664C21.1991 18.0914 21.1546 18.0244 21.0948 17.973C21.035 17.9215 20.9621 17.8876 20.8842 17.8748ZM18.1388 20.3153C18.0876 20.3631 18.0493 20.4228 18.0271 20.4892C18.0049 20.5555 17.9997 20.6263 18.0119 20.6952L18.4293 23.128L16.2408 21.9794C16.1797 21.9475 16.1118 21.9309 16.0429 21.9309C15.974 21.9309 15.9061 21.9475 15.845 21.9794L13.6565 23.128L14.0739 20.6952C14.0859 20.6263 14.0805 20.5556 14.0584 20.4893C14.0363 20.423 13.998 20.3632 13.9471 20.3153L12.1773 18.5929L14.6233 18.237C14.6916 18.2274 14.7566 18.2013 14.8126 18.1609C14.8685 18.1205 14.9137 18.0671 14.9442 18.0053L16.0378 15.7915L17.1327 18.0053C17.1632 18.0672 17.2083 18.1206 17.2643 18.161C17.3202 18.2014 17.3853 18.2275 17.4537 18.237L19.8997 18.5929L18.1388 20.3153Z" fill="white"/>
</svg>
