<svg width="32" height="32" viewBox="0 0 32 32" fill="none" xmlns="http://www.w3.org/2000/svg">
<path d="M27.7677 9.52258L29.9613 7.32903L24.671 2.03871L22.4774 4.23226C21.6 3.74194 20.6968 3.38065 19.7419 3.09677V0H12.2581V3.09677C11.3032 3.38065 10.4 3.74194 9.52258 4.23226L7.32903 2.03871L2.03871 7.32903L4.23226 9.52258C3.74194 10.4 3.38065 11.3032 3.09677 12.2581H0V19.7419H3.09677C3.38065 20.6968 3.74194 21.6 4.23226 22.4774L2.03871 24.671L7.32903 29.9613L9.52258 27.7677C10.4 28.2581 11.3032 28.6194 12.2581 28.9032V32H19.7419V28.9032C20.6968 28.6194 21.6 28.2581 22.4774 27.7677L24.671 29.9613L29.9613 24.671L27.7677 22.4774C28.2581 21.6 28.6194 20.6968 28.9032 19.7419H32V12.2581H28.9032C28.6194 11.3032 28.2323 10.4 27.7677 9.52258ZM30.9677 18.7097H28.1032L28 19.0968C27.7161 20.2065 27.2774 21.2903 26.6839 22.2968L26.4774 22.6323L28.5161 24.671L24.6968 28.4903L22.6581 26.4516L22.3226 26.6581C21.3161 27.2516 20.2323 27.6903 19.1226 27.9742L18.7355 28.0774V30.9677H13.3161V28.1032L12.929 28C11.8194 27.7161 10.7355 27.2774 9.72903 26.6839L9.39355 26.4774L7.35484 28.5161L3.50968 24.671L5.54839 22.6323L5.34194 22.2968C4.74839 21.2903 4.30968 20.2065 4.02581 19.0968L3.92258 18.7097H1.03226V13.2903H3.89677L4 12.9032C4.28387 11.7935 4.72258 10.7097 5.31613 9.70323L5.52258 9.36774L3.48387 7.32903L7.30323 3.50968L9.34194 5.54839L9.67742 5.34194C10.6839 4.74839 11.7677 4.30968 12.8774 4.02581L13.2645 3.92258V1.03226H18.6839V3.89677L19.071 4C20.1806 4.28387 21.2645 4.72258 22.271 5.31613L22.6065 5.52258L24.6452 3.48387L28.4645 7.30323L26.4258 9.34194L26.6323 9.67742C27.2258 10.6839 27.6645 11.7677 27.9484 12.8774L28.0516 13.2645H30.9677V18.7097Z" fill="white"/>
<path d="M16.0003 7.74194C11.4583 7.74194 7.74219 11.4581 7.74219 16C7.74219 20.5419 11.4583 24.2581 16.0003 24.2581C20.5422 24.2581 24.2583 20.5419 24.2583 16C24.2583 11.4581 20.5422 7.74194 16.0003 7.74194ZM16.0003 23.2258C12.0261 23.2258 8.77445 19.9742 8.77445 16C8.77445 12.0258 12.0261 8.7742 16.0003 8.7742C19.9744 8.7742 23.2261 12.0258 23.2261 16C23.2261 19.9742 19.9744 23.2258 16.0003 23.2258Z" fill="white"/>
<path d="M15.9743 15.3549C15.5356 15.1484 15.1743 14.9678 15.1743 14.4258C15.1743 13.9871 15.5614 13.6 16.0001 13.6C16.2581 13.6 16.5678 13.7291 16.7227 14.0387L17.6775 13.5742C17.471 13.0839 17.0065 12.7484 16.5162 12.6194V12.1807H15.484V12.6194C14.684 12.8516 14.1162 13.5484 14.1162 14.4774C14.1162 15.5871 14.8388 16 15.7936 16.4129C16.284 16.6194 16.8517 16.8774 16.8517 17.5484C16.8517 18.0129 16.4388 18.4516 15.9743 18.4516C15.5098 18.4516 15.2259 18.2194 15.0452 17.8839C14.7356 17.9871 14.4259 18.0903 14.142 18.1678C14.2969 18.7613 14.813 19.2774 15.5098 19.4323V19.9484H16.542V19.4323C17.3162 19.2 17.9098 18.4516 17.9098 17.5742C17.884 16.3871 17.3162 15.9484 15.9743 15.3549Z" fill="white"/>
</svg>
