<svg width="78" height="100" viewBox="0 0 78 100" fill="none" xmlns="http://www.w3.org/2000/svg">
<path d="M74.335 20.1196C67.4961 12.001 60.0474 5.7558 52.1945 1.55591C48.3169 -0.518636 43.6853 -0.518636 39.8077 1.55591C31.9548 5.7558 24.5063 12.001 17.6672 20.1196C15.9443 22.1629 14.996 24.7179 14.996 27.3142V35.0611C4.96271 41.5043 0.993652 46.6464 0.993652 52.9922C0.993652 55.1898 1.77498 57.0573 3.31724 58.5399C5.66523 60.8001 9.6981 62.0171 14.7625 62.0171C14.8391 62.0171 14.919 62.0133 14.996 62.0129L14.996 92.9988C14.996 96.8589 18.1371 100 21.9971 100L70.0051 100C73.8651 100 77.0062 96.8589 77.0062 92.9988L77.0062 27.3142C77.0062 24.7179 76.0579 22.1629 74.335 20.1196ZM75.0059 92.9988C75.0059 95.7571 72.7623 97.9997 70.0051 97.9997L21.9971 97.9997C19.2399 97.9997 16.9963 95.7571 16.9963 92.9988L16.9963 40.9902C16.9963 40.4373 16.549 39.9901 15.9961 39.9901C15.4432 39.9901 14.996 40.4373 14.996 40.9902L14.996 60.0028C10.407 60.0408 6.68079 59.0012 4.70327 57.0983C3.56928 56.0083 2.99398 54.6253 2.99398 52.9922C2.99398 48.005 5.58221 43.1058 18.2123 35.4073C25.1913 31.1536 34.0981 27.0849 40.0067 24.5479C41.2293 26.5976 43.4463 27.9881 46.0009 27.9881C49.8609 27.9881 53.0021 24.847 53.0021 20.9869C53.0021 17.1269 49.8609 13.9858 46.0009 13.9858C42.1409 13.9858 38.9997 17.1269 38.9997 20.9869C38.9997 21.5818 39.097 22.1501 39.2374 22.7022C33.2676 25.2654 24.2513 29.3843 17.1709 33.7C17.1103 33.7368 17.0563 33.7722 16.9961 33.8092V27.3144C16.9961 25.191 17.7774 23.0929 19.1967 21.4092C25.8716 13.4861 33.1228 7.39907 40.751 3.3184C44.0388 1.56031 47.9632 1.56411 51.2508 3.3184C58.879 7.39907 66.1302 13.4861 72.8051 21.4092C74.2244 23.0931 75.0057 25.191 75.0057 27.3144L75.0059 92.9988ZM46.9329 20.6255C46.7326 20.1098 46.1515 19.8539 45.6386 20.055C45.5848 20.0756 43.8253 20.7633 41.0939 21.9123C41.0373 21.6116 41.0003 21.3036 41.0003 20.9867C41.0003 18.2285 43.2438 15.9859 46.0011 15.9859C48.7584 15.9859 51.0019 18.2285 51.0019 20.9867C51.0019 23.745 48.7584 25.9876 46.0011 25.9876C44.2712 25.9876 42.7452 25.1038 41.8468 23.765C44.5601 22.6236 46.3104 21.9391 46.3636 21.9185C46.8782 21.7192 47.1331 21.1393 46.9329 20.6255ZM49.7605 60.8587C46.3802 58.6161 44.5595 57.1745 44.3562 56.6138C44.241 55.8169 44.4667 54.9573 44.9335 54.4221C45.2374 54.0744 45.6026 53.9084 46.1457 53.8692C47.4271 53.7794 48.1745 54.6681 48.2897 54.8147C49.912 57.0671 53.1029 57.698 55.5535 56.2388C57.9669 54.8089 58.6672 51.9138 57.2178 49.3586C56.0376 47.2737 52.4434 44.2548 47.3507 43.9053C47.2665 43.5151 47.1873 43.1676 47.1675 42.9922C46.9479 41.6453 44.8893 41.6693 44.6779 42.9922L44.4813 43.9965C41.3955 44.4128 38.6509 45.8356 36.6898 48.079C34.3242 50.7827 33.2702 54.3907 33.7977 57.979C34.5352 63.0111 39.3514 66.205 43.6011 69.0239C45.327 70.1705 47.9368 71.9034 48.4993 72.8253C49.2895 74.1185 49.4087 75.3745 48.8344 76.3631C48.2835 77.3144 47.1877 77.9141 45.8153 78.0098C44.2262 78.1562 42.3831 76.0972 41.8956 75.3531C40.4168 73.0167 37.1682 72.2158 34.6492 73.5754C32.3196 74.8334 31.5159 77.5389 32.6469 80.3069C34.0655 83.7711 39.0221 87.4191 44.4663 87.9158L44.6777 88.9958C44.8891 90.3186 46.9477 90.3426 47.1673 88.9958C47.1903 88.7913 47.2937 88.3523 47.3919 87.885C52.0325 87.3377 56.0388 84.8723 58.2001 81.1449C60.5715 77.0564 60.4085 72.2118 57.7528 67.8575C56.0202 65.0132 52.8382 62.9021 49.7605 60.8587ZM56.4696 80.1411C54.5201 83.5049 50.7821 85.6908 46.471 85.9879C40.6028 86.3863 35.6322 82.3155 34.4992 79.5492C33.9131 78.1174 33.8947 76.2557 35.6 75.3357C36.1401 75.0447 36.731 74.906 37.3131 74.906C38.4685 74.906 39.5908 75.4511 40.2139 76.4375C40.9133 77.5041 43.2937 80.2173 45.9659 80.0045C47.9994 79.8639 49.6755 78.9027 50.5643 77.3673C51.5234 75.7166 51.3964 73.7318 50.2068 71.7823C49.4713 70.5771 47.3733 69.1277 44.7069 67.3558C40.8058 64.7694 36.3851 61.8373 35.7766 57.6902C35.3351 54.6799 36.2161 51.658 38.196 49.3958C39.9893 47.3427 42.5785 46.0985 45.4882 45.8912C50.4606 45.524 54.3071 48.2764 55.4773 50.3452C56.3808 51.9372 55.992 53.6543 54.5327 54.5197C52.9905 55.4338 50.9197 55.0412 49.8904 53.6171C49.1792 52.701 47.769 51.7652 46.0127 51.8726C44.9275 51.9508 44.0818 52.3551 43.4263 53.1072C42.5795 54.0762 42.1781 55.5294 42.3773 56.9047C42.5785 58.2623 44.7391 59.9286 48.6547 62.5266C51.5498 64.4469 54.5433 66.4334 56.0456 68.8987C58.3077 72.6083 58.4622 76.7069 56.4696 80.1411Z" fill="white"/>
</svg>
