<svg width="100" height="100" viewBox="0 0 100 100" fill="none" xmlns="http://www.w3.org/2000/svg">
<path d="M87.6923 96.6154H69.2308C68.6154 96.6154 68 97.0769 68 97.8461C68 98.6154 68.4615 99.0769 69.2308 99.0769H87.6923C88.3077 99.0769 88.9231 98.6154 88.9231 97.8461C88.9231 97.0769 88.3077 96.6154 87.6923 96.6154Z" fill="white"/>
<path d="M95.3846 96.6154H92.3077C91.6923 96.6154 91.0769 97.0769 91.0769 97.8461C91.0769 98.6154 91.5384 99.0769 92.3077 99.0769H95.3846C96 99.0769 96.6154 98.6154 96.6154 97.8461C96.6154 97.0769 96 96.6154 95.3846 96.6154Z" fill="white"/>
<path d="M6.15383 22C6.76921 22 7.3846 21.5385 7.3846 20.7692L7.3846 8.46154C7.3846 7.84616 6.92306 7.23077 6.15383 7.23077C5.3846 7.23077 5.0769 7.84616 5.0769 8.46154L5.0769 20.7692C5.0769 21.3846 5.53844 22 6.15383 22Z" fill="white"/>
<path d="M6.15383 5.0769C6.76921 5.0769 7.3846 4.61537 7.3846 3.84614V2.30767C7.3846 1.69229 6.92306 1.0769 6.15383 1.0769C5.3846 1.0769 5.0769 1.69229 5.0769 2.30767V3.84614C5.0769 4.46152 5.53844 5.0769 6.15383 5.0769Z" fill="white"/>
<path d="M10.7691 58.923C11.3845 58.923 11.9999 58.4615 11.9999 57.6923C11.9999 56.923 11.3845 56.6153 10.7691 56.6153H8.92298V54.6154C8.92298 54 8.46144 53.3846 7.69221 53.3846C6.92298 53.3846 6.46144 53.8461 6.46144 54.6154V56.6153H4.61529C3.99991 56.6153 3.38452 57.0769 3.38452 57.8461C3.38452 58.6153 3.84606 59.0769 4.61529 59.0769H6.61529V61.0769C6.61529 61.6923 7.07683 62.3077 7.84606 62.3077C8.61529 62.3077 9.07683 61.8461 9.07683 61.0769V59.0769H10.7691V58.923Z" fill="white"/>
<path d="M89.3844 7.38458H87.3844V5.38458C87.3844 4.76919 86.9229 4.15381 86.1537 4.15381C85.3844 4.15381 84.9229 4.61535 84.9229 5.38458V7.38458H82.9229C82.3075 7.38458 81.6921 7.84612 81.6921 8.61535C81.6921 9.38458 82.1537 9.84612 82.9229 9.84612H84.9229V11.8461C84.9229 12.4615 85.3844 13.0769 86.1537 13.0769C86.9229 13.0769 87.3844 12.6153 87.3844 11.8461V9.69227H89.3844C89.9998 9.69227 90.6152 9.23073 90.6152 8.4615C90.6152 7.69227 89.9998 7.38458 89.3844 7.38458Z" fill="white"/>
<path d="M65.0768 70.1538C72.4614 70.1538 78.4614 64.1538 78.4614 56.6153C78.4614 53.6923 79.6922 50.7692 81.6922 48.7692C86.923 43.5384 86.923 34.923 81.6922 29.6923C79.5384 27.5384 78.4614 24.7692 78.4614 21.8461C78.4614 14.4615 72.4614 8.30765 64.923 8.30765C61.9999 8.30765 59.0768 7.07689 57.0768 5.07689C51.8461 -0.153883 43.2307 -0.153883 37.9999 5.07689C35.8461 7.23073 33.0768 8.30765 30.1538 8.30765C22.7691 8.30765 16.6153 14.3077 16.6153 21.8461C16.6153 24.7692 15.3845 27.6923 13.3845 29.6923C10.7691 32.3077 9.38452 35.5384 9.38452 39.2307C9.38452 42.7692 10.7691 46.1538 13.3845 48.7692C15.5384 50.923 16.6153 53.6923 16.6153 56.6153C16.6153 64 22.6153 70.1538 30.1538 70.1538C33.0768 70.1538 35.9999 71.3846 37.9999 73.3846C40.6153 76 43.9999 77.3846 47.5384 77.3846C50.923 77.3846 54.4614 76 57.0768 73.3846C59.3845 71.2307 62.1538 70.1538 65.0768 70.1538ZM39.8461 71.6923C37.2307 69.0769 33.8461 67.6923 30.3076 67.6923C24.1538 67.6923 19.0768 62.6153 19.0768 56.4615C19.0768 52.923 17.6922 49.5384 15.0768 46.923C12.923 44.7692 11.8461 42 11.8461 39.0769C11.8461 36.1538 13.0768 33.2307 15.0768 31.2307C17.6922 28.6153 19.0768 25.2307 19.0768 21.6923C19.0768 15.5384 24.1538 10.4615 30.3076 10.4615C33.8461 10.4615 37.2307 9.07688 39.8461 6.4615C41.9999 4.61535 44.7691 3.53842 47.6922 3.53842C50.6153 3.53842 53.3845 4.61535 55.5384 6.76919C58.1537 9.23073 61.5384 10.6153 65.0768 10.6153C71.2307 10.6153 76.1537 15.6923 76.1537 21.8461C76.1537 25.3846 77.5384 28.7692 80.1537 31.3846C84.4614 35.6923 84.4614 42.7692 80.1537 47.2307C77.5384 49.8461 76.1537 53.2307 76.1537 56.7692C76.1537 62.923 71.0768 68 64.923 68C61.3845 68 57.9999 69.3846 55.3845 72C51.2307 76.1538 44.1537 76.1538 39.8461 71.6923Z" fill="white"/>
<path d="M74.923 39.2308C74.923 38.6154 74.4614 38 73.6922 38C73.0768 38 72.4614 38.4615 72.4614 39.2308C72.4614 52.9231 61.2307 64.1539 47.3845 64.3077C33.6922 64.3077 22.4614 53.0769 22.3076 39.2308C22.3076 35.3846 23.0768 31.8462 24.7691 28.4615C29.2307 19.8462 38.1537 14.3077 47.6922 14.3077C58.1537 14.3077 67.6922 20.9231 71.2307 30.9231C71.3845 31.5385 72.1537 31.8462 72.7691 31.6923C73.0768 31.5385 73.2307 31.3846 73.3845 31.0769C73.5384 30.7692 73.5384 30.4615 73.3845 30.1538C69.5384 19.3846 59.2307 12 47.6922 12C42.4614 12 37.3845 13.5385 32.923 16.3077C28.6153 19.0769 25.2307 22.9231 23.0768 27.5385C21.3845 31.2308 20.4614 35.2308 20.4614 39.3846C20.4614 54.4615 32.7691 66.7692 47.846 66.7692C62.923 66.7692 74.923 54.3077 74.923 39.2308Z" fill="white"/>
<path d="M72.4615 34.1538C72.3076 34.4615 72.3076 34.7692 72.3076 35.0769C72.4615 35.6923 72.923 36 73.3845 36H73.5384C73.8461 36 74.1538 35.8461 74.3076 35.5384C74.4615 35.2308 74.6153 34.9231 74.4615 34.6154C74.3076 34 73.6922 33.5384 73.0768 33.6923C72.923 33.8461 72.7692 34 72.4615 34.1538Z" fill="white"/>
<path d="M66.3077 33.2308C66.1538 32.7692 65.8461 32.4615 65.3846 32.4615L53.8461 30.7692L48.7692 20.3077C48.3077 19.5385 47.0769 19.5385 46.7692 20.3077L41.5385 30.7692L30.1538 32.4615C29.6923 32.4615 29.3846 32.7692 29.2308 33.2308C29.0769 33.6923 29.2308 34.1538 29.5385 34.4615L37.8461 42.6154L35.6923 53.8462C35.6923 54.3077 35.8461 54.7692 36.1538 54.9231C36.4615 55.2308 36.9231 55.2308 37.3846 55.0769L47.6923 49.6923L58 55.0769C58.1538 55.2308 58.3077 55.2308 58.4615 55.2308C58.7692 55.2308 58.9231 55.2308 59.0769 55.0769C59.3846 54.7692 59.5385 54.3077 59.5385 54L57.5385 42.6154L65.8461 34.4615C66.3077 34.1538 66.3077 33.6923 66.3077 33.2308ZM55.5385 41.2308C55.2308 41.5385 55.0769 41.8462 55.2308 42.3077L56.9231 52L48.1538 47.3846C48 47.2308 47.8461 47.2308 47.6923 47.2308C47.5385 47.2308 47.3846 47.2308 47.2308 47.3846L38.4615 52L40.1538 42.3077C40.1538 42 40.1538 41.5385 39.8461 41.2308L32.7692 34.3077L42.4615 32.9231C42.7692 32.9231 43.2308 32.6154 43.3846 32.3077L47.6923 23.5385L52 32.3077C52.1538 32.6154 52.4615 32.9231 52.9231 32.9231L62.6154 34.3077L55.5385 41.2308Z" fill="white"/>
<path d="M39.9999 79.3846C39.3845 79.0769 38.7691 79.3846 38.4614 80L31.5384 94.7692L27.2307 82.7692C27.0768 82.4615 26.923 82.3077 26.6153 82.1538C26.3076 82 25.9999 82 25.6922 82.1538L13.6922 86.4615L20.3076 72.1538C20.6153 71.5384 20.3076 70.9231 19.6922 70.6154C19.0768 70.3077 18.4614 70.6154 18.1538 71.2308L10.3076 88.1538C10.1538 88.6154 10.1538 89.0769 10.4614 89.3846C10.7691 89.6923 11.2307 89.8461 11.6922 89.6923L25.2307 84.7692L30.1538 98.3077C30.3076 98.7692 30.7691 99.0769 31.2307 99.0769C31.6922 99.0769 32.1538 98.7692 32.3076 98.4615L40.3076 81.2308C40.923 80.3077 40.6153 79.6923 39.9999 79.3846Z" fill="white"/>
<path d="M82.4614 89.2307C82.7691 88.923 82.9229 88.4615 82.6152 88L75.2306 72.3077C74.9229 71.6923 74.3075 71.5384 73.6922 71.6923C73.0768 72 72.9229 72.6153 73.0768 73.2307L79.2306 86.4615L67.2306 82.1538C66.9229 82 66.6152 82 66.3075 82.1538C65.9998 82.3077 65.846 82.4615 65.6922 82.7692L61.5383 94.6153L55.0768 80.6153C54.7691 80 54.1537 79.8461 53.5383 80C52.9229 80.3077 52.7691 80.923 52.9229 81.5384L60.6152 98C60.7691 98.4615 61.2306 98.6153 61.6921 98.6153C62.1537 98.6153 62.6152 98.3077 62.7691 97.8461L67.6921 84.3077L81.2306 89.2307C81.6921 89.6923 82.1537 89.5384 82.4614 89.2307Z" fill="white"/>
</svg>
