<svg width="32" height="32" viewBox="0 0 32 32" fill="none" xmlns="http://www.w3.org/2000/svg">
<path d="M19.4066 5.80664H12.5937V12.5679H5.80664V19.4066H12.5679V26.1679H19.4066V19.4066H26.1679V12.5937H19.4066V5.80664ZM25.1615 13.626V18.4002H18.3744V25.1615H13.626V18.3744H6.8389V13.626H13.6002V6.8389H18.3744V13.6002H25.1615V13.626Z" fill="white"/>
<path d="M16 0C7.17419 0 0 7.17419 0 16C0 24.8258 7.17419 32 16 32C24.8258 32 32 24.8258 32 16C32 7.17419 24.8258 0 16 0ZM16 30.9677C7.74194 30.9677 1.03226 24.2581 1.03226 16C1.03226 7.74194 7.74194 1.03226 16 1.03226C24.2581 1.03226 30.9677 7.74194 30.9677 16C30.9677 24.2581 24.2581 30.9677 16 30.9677Z" fill="white"/>
</svg>
