<svg width="32" height="32" viewBox="0 0 32 32" fill="none" xmlns="http://www.w3.org/2000/svg">
<g clip-path="url(#clip0_1897_24145)">
<path fill-rule="evenodd" clip-rule="evenodd" d="M21.75 22.4309C20.3325 22.4309 19.44 23.0142 18.6525 23.542C17.97 24.0003 17.4135 24.3753 16.5 24.3753C15.555 24.3753 15.03 24.0281 14.3475 23.542C13.56 23.0142 12.699 22.4309 11.25 22.4309C9.801 22.4309 8.94 23.0142 8.1525 23.542C7.47 24.0003 6.924 24.3753 6 24.3753V27.0837C7.4175 27.0837 8.31 26.5003 9.0975 25.9726C9.78 25.5142 10.326 25.1392 11.25 25.1392C12.174 25.1392 12.72 25.4864 13.4025 25.9726C14.19 26.5003 15.051 27.0837 16.5 27.0837C17.949 27.0837 18.81 26.5003 19.5975 25.9726C20.28 25.5142 20.8365 25.1392 21.75 25.1392C22.695 25.1392 23.22 25.4864 23.9025 25.9726C24.69 26.5003 25.5615 27.0837 27 27.0837V24.3753C26.055 24.3753 25.53 24.0281 24.8475 23.542C24.06 23.0142 23.1675 22.4309 21.75 22.4309ZM21.75 16.2503C20.3325 16.2503 19.44 16.8475 18.6525 17.3614C17.97 17.8059 17.4135 18.1948 16.5 18.1948C15.555 18.1948 15.03 17.8475 14.3475 17.3614C13.56 16.8337 12.699 16.2503 11.25 16.2503C9.801 16.2503 8.94 16.8475 8.1525 17.3614C7.47 17.8059 6.924 18.1948 6 18.1948V20.9031C7.4175 20.9031 8.31 20.3059 9.0975 19.792C9.78 19.3059 10.305 18.9587 11.25 18.9587C12.195 18.9587 12.72 19.3059 13.4025 19.792C14.19 20.3198 15.051 20.9031 16.5 20.9031C17.949 20.9031 18.81 20.3059 19.5975 19.792C20.28 19.3059 20.805 18.9587 21.75 18.9587C22.695 18.9587 23.22 19.3059 23.9025 19.792C24.69 20.3198 25.5615 20.9031 27 20.9031V18.1948C26.055 18.1948 25.53 17.8475 24.8475 17.3614C24.06 16.8337 23.1675 16.2503 21.75 16.2503ZM24.8475 5.0281C24.06 4.50033 23.1885 3.91699 21.75 3.91699C20.3115 3.91699 19.44 4.50033 18.6525 5.0281C17.97 5.47255 17.4135 5.86144 16.5 5.86144C15.555 5.86144 15.03 5.51421 14.3475 5.0281C13.56 4.51421 12.699 3.91699 11.25 3.91699C9.801 3.91699 8.94 4.50033 8.1525 5.0281C7.47 5.48644 6.924 5.86144 6 5.86144V8.54199C7.4175 8.54199 8.31 7.94477 9.0975 7.43088C9.78 6.97255 10.326 6.59755 11.25 6.59755C12.174 6.59755 12.72 6.94477 13.4025 7.43088C14.19 7.95866 15.051 8.54199 16.5 8.54199C17.949 8.54199 18.81 7.94477 19.5975 7.43088C20.28 6.98644 20.8365 6.59755 21.75 6.59755C22.695 6.59755 23.22 6.94477 23.9025 7.43088C24.69 7.95866 25.5615 8.54199 27 8.54199V5.83366C26.055 5.83366 25.53 5.48644 24.8475 5.0281ZM21.75 10.0698C20.3325 10.0698 19.44 10.667 18.6525 11.1809C17.97 11.667 17.445 12.0142 16.5 12.0142C15.555 12.0142 15.03 11.667 14.3475 11.1809C13.56 10.6531 12.699 10.0698 11.25 10.0698C9.801 10.0698 8.94 10.667 8.1525 11.1809C7.47 11.667 6.945 12.0142 6 12.0142V14.7225C7.4175 14.7225 8.31 14.1253 9.0975 13.6114C9.78 13.167 10.3365 12.7781 11.25 12.7781C12.1635 12.7781 12.72 13.1253 13.4025 13.6114C14.19 14.1392 15.051 14.7225 16.5 14.7225C17.949 14.7225 18.81 14.1253 19.5975 13.6114C20.28 13.167 20.8365 12.7781 21.75 12.7781C22.695 12.7781 23.22 13.1253 23.9025 13.6114C24.69 14.1392 25.5615 14.7225 27 14.7225V12.0142C26.055 12.0142 25.53 11.667 24.8475 11.1809C24.06 10.6531 23.1675 10.0698 21.75 10.0698Z" fill="white"/>
</g>
<defs>
<clipPath id="clip0_1897_24145">
<rect width="21" height="25" fill="white" transform="translate(6 3)"/>
</clipPath>
</defs>
</svg>
